<svg width="42" height="43" viewBox="0 0 42 43" fill="none" xmlns="http://www.w3.org/2000/svg">
<path d="M38.9513 27.9106C38.9513 23.4494 36.392 19.468 32.5589 17.5312C32.4398 26.085 25.5049 33.0199 16.9512 33.139C18.8879 36.972 22.8693 39.5314 27.3305 39.5314C29.4222 39.5314 31.4563 38.9743 33.2435 37.9158L38.9005 39.4806L37.3358 33.8236C38.3942 32.0364 38.9513 30.0023 38.9513 27.9106Z" fill="#F14A16"/>
<path d="M30.4545 17.3093C30.4545 9.73992 24.2966 3.58203 16.7272 3.58203C9.15789 3.58203 3 9.73992 3 17.3093C3 19.7762 3.65663 22.178 4.90351 24.2867L3.05047 30.9858L9.74979 29.133C11.8585 30.3799 14.2603 31.0365 16.7272 31.0365C24.2966 31.0365 30.4545 24.8786 30.4545 17.3093ZM14.6208 14.1144H12.5143C12.5143 11.7913 14.4041 9.90148 16.7272 9.90148C19.0504 9.90148 20.9402 11.7913 20.9402 14.1144C20.9402 15.2936 20.441 16.4269 19.5702 17.2234L17.7805 18.8614V20.5041H15.674V17.9338L18.148 15.6693C18.5902 15.2648 18.8337 14.7126 18.8337 14.1144C18.8337 12.9529 17.8888 12.008 16.7272 12.008C15.5657 12.008 14.6208 12.9529 14.6208 14.1144ZM15.674 22.6106H17.7805V24.7171H15.674V22.6106Z" fill="#F14A16"/>
</svg>
