<svg width="42" height="42" viewBox="0 0 42 42" fill="none" xmlns="http://www.w3.org/2000/svg">
<path d="M21.3941 5C12.3895 5 5 12.3895 5 21.3941C5 30.3987 12.3895 37.7882 21.3941 37.7882C30.3987 37.7882 37.7882 30.3987 37.7882 21.3941C37.7882 12.3895 30.3987 5 21.3941 5ZM23.0769 25.5173C21.0242 27.3835 17.8676 27.3084 15.9059 25.3467L13.5893 23.0301C12.8391 22.2799 12.8391 21.0636 13.5893 20.3134C14.3395 19.5632 15.5558 19.5632 16.306 20.3134L17.2963 21.3038C18.55 22.5575 20.5674 22.6055 21.8793 21.4129L27.3256 16.4619C28.1105 15.7483 29.3253 15.806 30.0391 16.5908C30.7532 17.3758 30.6954 18.5912 29.9102 19.305L23.0769 25.5173Z" fill="#F14A16"/>
</svg>
