<svg width="18" height="19" viewBox="0 0 18 19" fill="none" xmlns="http://www.w3.org/2000/svg">
<path d="M16.3199 12.44L11.5199 3.8C10.8749 2.6375 9.98236 2 8.99986 2C8.01736 2 7.12486 2.6375 6.47986 3.8L1.67986 12.44C1.07236 13.5425 1.00486 14.6 1.49236 15.4325C1.97986 16.265 2.93986 16.7225 4.19986 16.7225H13.7999C15.0599 16.7225 16.0199 16.265 16.5074 15.4325C16.9949 14.6 16.9274 13.535 16.3199 12.44ZM8.43736 7.25C8.43736 6.9425 8.69236 6.6875 8.99986 6.6875C9.30736 6.6875 9.56236 6.9425 9.56236 7.25V11C9.56236 11.3075 9.30736 11.5625 8.99986 11.5625C8.69236 11.5625 8.43736 11.3075 8.43736 11V7.25ZM9.53236 13.7825C9.49486 13.8125 9.45736 13.8425 9.41986 13.8725C9.37486 13.9025 9.32986 13.925 9.28486 13.94C9.23986 13.9625 9.19486 13.9775 9.14236 13.985C9.09736 13.9925 9.04486 14 8.99986 14C8.95486 14 8.90236 13.9925 8.84986 13.985C8.80486 13.9775 8.75986 13.9625 8.71486 13.94C8.66986 13.925 8.62486 13.9025 8.57986 13.8725C8.54236 13.8425 8.50486 13.8125 8.46736 13.7825C8.33236 13.64 8.24986 13.445 8.24986 13.25C8.24986 13.055 8.33236 12.86 8.46736 12.7175C8.50486 12.6875 8.54236 12.6575 8.57986 12.6275C8.62486 12.5975 8.66986 12.575 8.71486 12.56C8.75986 12.5375 8.80486 12.5225 8.84986 12.515C8.94736 12.4925 9.05236 12.4925 9.14236 12.515C9.19486 12.5225 9.23986 12.5375 9.28486 12.56C9.32986 12.575 9.37486 12.5975 9.41986 12.6275C9.45736 12.6575 9.49486 12.6875 9.53236 12.7175C9.66736 12.86 9.74986 13.055 9.74986 13.25C9.74986 13.445 9.66736 13.64 9.53236 13.7825Z" fill="#DB371F"/>
</svg>
