<svg width="42" height="42" viewBox="0 0 42 42" fill="none" xmlns="http://www.w3.org/2000/svg">
<path d="M29.2143 8.88253C29.2143 8.07425 28.8988 7.31335 28.3271 6.74166L25.4726 3.88714C24.9088 3.32332 24.1086 3 23.3121 3C23.2163 3 23.1387 3.07767 23.1387 3.17347V6.028C23.1387 7.70032 24.4944 9.056 26.1667 9.056H29.0408C29.1366 9.056 29.2143 8.97832 29.2143 8.88253Z" fill="#F14A16"/>
<path d="M21.4329 23.8284C21.6261 23.2419 21.9632 22.6959 22.4028 22.2533L28.3276 16.3523C28.9096 15.7727 29.2368 14.9851 29.2368 14.1637C29.2368 12.4577 27.8538 11.0747 26.1478 11.0747H22.1446C21.5867 11.0747 21.168 10.6232 21.168 10.0653C21.168 6.16326 18.0047 3 14.1027 3H6.028C4.35829 3 3 4.35829 3 6.028V34.4239C3 36.0936 4.35829 37.4519 6.028 37.4519H26.1819C27.8516 37.4519 29.2368 36.0936 29.2368 34.4239V28.4406C29.2368 27.8626 28.5413 27.5695 28.1276 27.9731C27.6782 28.4186 27.1519 28.7429 26.5584 28.9411L23.8135 29.8575C23.5053 29.9604 23.1847 30.0215 22.8602 30.0392C22.0519 30.0392 21.287 29.6459 20.812 28.9874C20.3408 28.332 20.2127 27.4823 20.4689 26.7145L21.4329 23.8284ZM8.04666 21.168H18.1072C18.6651 21.168 19.1166 21.6194 19.1166 22.1773C19.1166 22.7352 18.6651 23.1867 18.1072 23.1867H8.04666C7.48877 23.1867 7.03733 22.7352 7.03733 22.1773C7.03733 21.6194 7.48877 21.168 8.04666 21.168ZM7.03733 18.14C7.03733 17.5821 7.48877 17.1307 8.04666 17.1307H18.1072C18.6651 17.1307 19.1166 17.5821 19.1166 18.14C19.1166 18.6979 18.6651 19.1493 18.1072 19.1493H8.04666C7.48877 19.1493 7.03733 18.6979 7.03733 18.14ZM7.03733 26.2147C7.03733 25.6568 7.48877 25.2053 8.04666 25.2053H18.1072C18.6651 25.2053 19.1166 25.6568 19.1166 26.2147C19.1166 26.7725 18.6651 27.224 18.1072 27.224H8.04666C7.48877 27.224 7.03733 26.7725 7.03733 26.2147ZM22.1446 31.2613C22.7024 31.2613 23.1539 31.7128 23.1539 32.2707C23.1539 32.8285 22.7025 33.28 22.1446 33.28H16.0886C15.5307 33.28 15.0792 32.8285 15.0792 32.2707C15.0792 31.7128 15.5307 31.2613 16.0886 31.2613H22.1446ZM8.04666 15.112C7.48877 15.112 7.03733 14.6606 7.03733 14.1027C7.03733 13.5448 7.48877 13.0933 8.04666 13.0933H22.1446C22.7024 13.0933 23.1539 13.5448 23.1539 14.1027C23.1539 14.6606 22.7024 15.112 22.1446 15.112H8.04666Z" fill="#F14A16"/>
<path d="M24.4575 25.9178C23.9075 25.3678 22.971 25.5889 22.7251 26.3267L22.3823 27.3551C22.2507 27.7498 22.6262 28.1252 23.0208 27.9934L24.0491 27.65C24.7865 27.4037 25.0072 26.4675 24.4575 25.9178Z" fill="#F14A16"/>
<path d="M32.5338 17.8415C31.7422 17.0499 30.4588 17.0499 29.6673 17.8415L25.8865 21.6222C25.0949 22.4139 25.0949 23.6973 25.8865 24.489C26.6782 25.2806 27.9611 25.2812 28.7527 24.4894C29.8741 23.3679 31.2422 21.9996 32.534 20.7078C33.3255 19.9162 33.3253 18.633 32.5338 17.8415Z" fill="#F14A16"/>
<path d="M36.8604 13.5159C36.5056 13.1591 35.9832 12.9551 35.4292 12.9551C34.8752 12.9551 34.3528 13.1591 33.996 13.5169L33.9624 13.5505C33.1709 14.342 33.1709 15.6253 33.9624 16.4168C34.754 17.2083 36.0375 17.2079 36.8292 16.4165C36.8429 16.4027 36.854 16.3916 36.8625 16.3832C37.6509 15.5935 37.6508 14.3074 36.8604 13.5159Z" fill="#F14A16"/>
</svg>
