<svg width="24" height="28" viewBox="0 0 24 28" fill="none" xmlns="http://www.w3.org/2000/svg">
<path d="M22.2863 11.7154C22.2863 19.7154 12.0006 26.5725 12.0006 26.5725C12.0006 26.5725 1.71484 19.7154 1.71484 11.7154C1.71484 8.98746 2.79851 6.37125 4.72746 4.4423C6.65641 2.51336 9.27262 1.42969 12.0006 1.42969C14.7285 1.42969 17.3447 2.51336 19.2737 4.4423C21.2026 6.37125 22.2863 8.98746 22.2863 11.7154Z" stroke="#F14A16" stroke-width="1.5" stroke-linecap="round" stroke-linejoin="round"/>
<path d="M12.0006 15.144C13.8941 15.144 15.4291 13.6089 15.4291 11.7154C15.4291 9.82185 13.8941 8.28683 12.0006 8.28683C10.107 8.28683 8.57199 9.82185 8.57199 11.7154C8.57199 13.6089 10.107 15.144 12.0006 15.144Z" stroke="#F14A16" stroke-width="1.5" stroke-linecap="round" stroke-linejoin="round"/>
</svg>
