<svg width="22" height="28" viewBox="0 0 22 28" fill="none" xmlns="http://www.w3.org/2000/svg">
<path d="M21.2863 11.7154C21.2863 19.7154 11.0006 26.5725 11.0006 26.5725C11.0006 26.5725 0.714844 19.7154 0.714844 11.7154C0.714844 8.98746 1.79851 6.37125 3.72746 4.4423C5.65641 2.51336 8.27262 1.42969 11.0006 1.42969C13.7285 1.42969 16.3447 2.51336 18.2737 4.4423C20.2026 6.37125 21.2863 8.98746 21.2863 11.7154Z" stroke="#F14A16" stroke-width="1.14286" stroke-linecap="round" stroke-linejoin="round"/>
<path d="M11.0006 15.144C12.8941 15.144 14.4291 13.6089 14.4291 11.7154C14.4291 9.82185 12.8941 8.28683 11.0006 8.28683C9.10701 8.28683 7.57199 9.82185 7.57199 11.7154C7.57199 13.6089 9.10701 15.144 11.0006 15.144Z" stroke="#F14A16" stroke-width="1.14286" stroke-linecap="round" stroke-linejoin="round"/>
</svg>
