<svg width="68" height="69" viewBox="0 0 68 69" fill="none" xmlns="http://www.w3.org/2000/svg">
<path d="M52 30.5C52 44.5 34 56.5 34 56.5C34 56.5 16 44.5 16 30.5C16 25.7261 17.8964 21.1477 21.2721 17.7721C24.6477 14.3964 29.2261 12.5 34 12.5C38.7739 12.5 43.3523 14.3964 46.7279 17.7721C50.1036 21.1477 52 25.7261 52 30.5Z" stroke="#F14A16" stroke-width="2" stroke-linecap="round" stroke-linejoin="round"/>
<path d="M34 36.5C37.3137 36.5 40 33.8137 40 30.5C40 27.1863 37.3137 24.5 34 24.5C30.6863 24.5 28 27.1863 28 30.5C28 33.8137 30.6863 36.5 34 36.5Z" stroke="#F14A16" stroke-width="2" stroke-linecap="round" stroke-linejoin="round"/>
</svg>
