<svg width="42" height="42" viewBox="0 0 42 42" fill="none" xmlns="http://www.w3.org/2000/svg">
<path d="M20.9993 21.0007C25.6022 21.0007 29.3327 17.2702 29.3327 12.6673C29.3327 8.06445 25.6022 4.33398 20.9993 4.33398C16.3965 4.33398 12.666 8.06445 12.666 12.6673C12.666 17.2702 16.3965 21.0007 20.9993 21.0007ZM27.2363 23.123L24.1243 35.584L22.041 26.7298L24.1243 23.084H17.8743L19.9577 26.7298L17.8743 35.584L14.7624 23.123C10.1204 23.3444 6.41602 27.14 6.41602 31.834V34.5423C6.41602 36.2676 7.81576 37.6673 9.54102 37.6673H32.4577C34.1829 37.6673 35.5827 36.2676 35.5827 34.5423V31.834C35.5827 27.14 31.8783 23.3444 27.2363 23.123Z" fill="#F14A16"/>
</svg>
