<svg width="26" height="26" viewBox="0 0 26 26" fill="none" xmlns="http://www.w3.org/2000/svg">
<path d="M15.8463 4.20704C17.264 4.58754 18.5568 5.33425 19.5948 6.37224C20.6327 7.41022 21.3795 8.70297 21.76 10.1207M14.9791 7.43554C15.8318 7.662 16.6094 8.10985 17.2333 8.7337C17.8571 9.35756 18.305 10.1352 18.5315 10.9879M8.85641 13.0671C9.71653 14.8433 11.1528 16.2759 12.9312 17.1315C13.0624 17.1936 13.2075 17.2205 13.3522 17.2095C13.497 17.1985 13.6363 17.15 13.7566 17.0688L16.3687 15.3239C16.4841 15.2457 16.6174 15.1979 16.7563 15.1851C16.8951 15.1723 17.035 15.1949 17.1627 15.2508L22.0525 17.3509C22.2196 17.4205 22.3592 17.543 22.4499 17.6997C22.5405 17.8564 22.5771 18.0386 22.554 18.2181C22.399 19.4277 21.8086 20.5394 20.8932 21.3452C19.9778 22.151 18.8002 22.5956 17.5807 22.5959C13.8121 22.5959 10.1978 21.0988 7.53298 18.434C4.86817 15.7692 3.37109 12.1549 3.37109 8.38633C3.37137 7.16681 3.81599 5.98918 4.62177 5.07378C5.42755 4.15839 6.53927 3.56796 7.7489 3.41298C7.92844 3.38992 8.11058 3.42651 8.26728 3.51713C8.42398 3.60775 8.54654 3.74737 8.6161 3.91449L10.7162 8.81471C10.7708 8.94045 10.7936 9.07769 10.7827 9.21434C10.7718 9.351 10.7274 9.48286 10.6535 9.59832L8.90865 12.2522C8.83097 12.3722 8.78537 12.5102 8.77623 12.6528C8.76708 12.7955 8.79469 12.9382 8.85641 13.0671Z" stroke="#484848" stroke-width="1.27931" stroke-linecap="round" stroke-linejoin="round"/>
</svg>
