<svg width="111" height="61" viewBox="0 0 111 61" fill="none" xmlns="http://www.w3.org/2000/svg">
<path d="M37.7874 39.6381C35.9769 41.5174 33.5131 42.4571 30.3963 42.4571C27.2794 42.4571 24.8042 41.5174 22.9707 39.6381C21.1602 37.7359 20.2549 35.1232 20.2549 31.8V18.049H25.4115V31.8C25.4115 33.7252 25.8584 35.2149 26.7522 36.2691C27.669 37.3004 28.8836 37.8161 30.3963 37.8161C31.9089 37.8161 33.1121 37.3004 34.0059 36.2691C34.9226 35.2149 35.381 33.7252 35.381 31.8V18.049H40.5376V31.8C40.5376 35.1232 39.6209 37.7359 37.7874 39.6381ZM51.529 42.4571C49.0309 42.4571 47.1287 41.907 45.8224 40.8069C44.516 39.6839 43.7253 38.2286 43.4503 36.441H48.6069C48.6986 36.8994 49.008 37.3004 49.5351 37.6442C50.0623 37.988 50.7269 38.1599 51.529 38.1599C53.5917 38.1599 54.623 37.7015 54.623 36.7848C54.623 36.3722 54.3594 36.0399 53.8323 35.7878C53.3281 35.5357 52.6864 35.3638 51.9072 35.2722C51.128 35.1576 50.28 34.9742 49.3632 34.7221C48.4694 34.47 47.6329 34.1721 46.8537 33.8283C46.0745 33.4616 45.4213 32.8772 44.8942 32.075C44.39 31.25 44.1379 30.2416 44.1379 29.0498C44.1379 27.4455 44.7796 26.1277 46.063 25.0964C47.3693 24.0651 49.1914 23.5494 51.529 23.5494C53.9584 23.5494 55.8148 24.0765 57.0982 25.1308C58.3816 26.1621 59.1608 27.5258 59.4359 29.2217H54.2792C54.05 28.305 53.1333 27.8466 51.529 27.8466C50.7727 27.8466 50.1768 27.9612 49.7414 28.1904C49.3289 28.4196 49.1226 28.706 49.1226 29.0498C49.1226 29.4624 49.3747 29.7947 49.8789 30.0468C50.406 30.2989 51.0592 30.4822 51.8384 30.5968C52.6176 30.6885 53.4542 30.8604 54.348 31.1125C55.2647 31.3646 56.1127 31.674 56.8919 32.0407C57.6711 32.3844 58.3129 32.9689 58.8171 33.7939C59.3442 34.5961 59.6077 35.593 59.6077 36.7848C59.6077 38.4349 58.9775 39.7985 57.717 40.8757C56.4565 41.9299 54.3938 42.4571 51.529 42.4571ZM62.5177 48.9888V23.8932H66.643L67.1587 25.9558H67.3306C68.7057 24.3516 70.4246 23.5494 72.4872 23.5494C74.8707 23.5494 76.7844 24.3745 78.2283 26.0246C79.6721 27.6518 80.3941 29.978 80.3941 33.0032C80.3941 36.0285 79.6721 38.3661 78.2283 40.0163C76.7844 41.6435 74.8707 42.4571 72.4872 42.4571C70.3558 42.4571 68.6942 41.7122 67.5025 40.2225H67.3306V48.9888H62.5177ZM68.4994 36.8879C69.2787 37.7359 70.2641 38.1599 71.4559 38.1599C72.6477 38.1599 73.6331 37.7359 74.4124 36.8879C75.1916 36.017 75.5812 34.7221 75.5812 33.0032C75.5812 31.2844 75.1916 30.0009 74.4124 29.153C73.6331 28.2821 72.6477 27.8466 71.4559 27.8466C70.2641 27.8466 69.2787 28.2821 68.4994 29.153C67.7202 30.0009 67.3306 31.2844 67.3306 33.0032C67.3306 34.7221 67.7202 36.017 68.4994 36.8879ZM83.668 42.1133V23.8932H88.4808V42.1133H83.668ZM88.0339 21.2117C87.5068 21.7389 86.8536 22.0024 86.0744 22.0024C85.2952 22.0024 84.642 21.7389 84.1149 21.2117C83.5878 20.6846 83.3242 20.0315 83.3242 19.2522C83.3242 18.473 83.5878 17.8198 84.1149 17.2927C84.642 16.7656 85.2952 16.502 86.0744 16.502C86.8536 16.502 87.5068 16.7656 88.0339 17.2927C88.561 17.8198 88.8246 18.473 88.8246 19.2522C88.8246 20.0315 88.561 20.6846 88.0339 21.2117ZM107.209 39.9819C105.627 41.632 103.45 42.4571 100.677 42.4571C97.9037 42.4571 95.715 41.632 94.1107 39.9819C92.5293 38.3088 91.7386 35.9826 91.7386 33.0032C91.7386 30.0239 92.5293 27.7091 94.1107 26.059C95.715 24.3859 97.9037 23.5494 100.677 23.5494C103.45 23.5494 105.627 24.3859 107.209 26.059C108.813 27.7091 109.615 30.0239 109.615 33.0032C109.615 35.9826 108.813 38.3088 107.209 39.9819ZM97.7203 36.8879C98.4995 37.7359 99.485 38.1599 100.677 38.1599C101.869 38.1599 102.854 37.7359 103.633 36.8879C104.412 36.017 104.802 34.7221 104.802 33.0032C104.802 31.2844 104.412 30.0009 103.633 29.153C102.854 28.2821 101.869 27.8466 100.677 27.8466C99.485 27.8466 98.4995 28.2821 97.7203 29.153C96.9411 30.0009 96.5515 31.2844 96.5515 33.0032C96.5515 34.7221 96.9411 36.017 97.7203 36.8879Z" fill="#F14A16"/>
<path fill-rule="evenodd" clip-rule="evenodd" d="M34.1744 8.32426C33.456 8.21514 32.7348 8.14072 32.0135 8.10063L30.8518 3.3342C32.2011 3.33932 33.5535 3.44322 34.8982 3.64745C40.2538 4.46084 45.2456 6.82918 49.2424 10.453L46.0177 13.9432C42.7177 10.9513 38.5962 8.99584 34.1744 8.32426ZM23.7417 4.23624C25.1722 3.86141 26.6301 3.60228 28.1009 3.46089L29.3087 8.1108C27.8069 8.20559 26.3175 8.44868 24.8629 8.83686L23.7417 4.23624ZM21.1609 5.04966C20.483 5.30048 19.8138 5.57845 19.1548 5.88332C14.2457 8.1545 10.1266 11.8168 7.31855 16.407C4.51049 20.9972 3.13952 26.3092 3.37903 31.6713C3.61853 37.0334 5.45774 42.2047 8.66409 46.5313C11.8704 50.8579 16.2999 54.1454 21.3923 55.9782C26.4848 57.811 32.0115 58.1067 37.2736 56.8279C42.5357 55.5491 47.2968 52.7532 50.9549 48.7939L47.4316 45.5994C44.4113 48.8685 40.4803 51.1768 36.1356 52.2327C31.791 53.2885 27.2279 53.0444 23.0233 51.5311C18.8187 50.0179 15.1615 47.3035 12.5142 43.7313C9.86689 40.159 8.34834 35.8893 8.15059 31.4621C7.95285 27.0349 9.08478 22.6491 11.4033 18.8592C13.7217 15.0692 17.1226 12.0455 21.1759 10.1703C21.5661 9.98976 21.9607 9.82064 22.3592 9.66303L21.1609 5.04966Z" fill="#F14A16"/>
</svg>
