<svg width="197" height="99" viewBox="0 0 197 99" fill="none" xmlns="http://www.w3.org/2000/svg">
<path d="M62.0719 66.0565C59.0958 69.1455 55.0461 70.6901 49.9228 70.6901C44.7994 70.6901 40.7309 69.1455 37.7171 66.0565C34.7411 62.9297 33.253 58.6351 33.253 53.1727V30.5697H41.7292V53.1727C41.7292 56.3372 42.4638 58.7858 43.933 60.5187C45.4398 62.2139 47.4364 63.0616 49.9228 63.0616C52.4091 63.0616 54.3869 62.2139 55.8561 60.5187C57.3629 58.7858 58.1164 56.3372 58.1164 53.1727V30.5697H66.5925V53.1727C66.5925 58.6351 65.0856 62.9297 62.0719 66.0565ZM84.6595 70.6901C80.5533 70.6901 77.4265 69.786 75.2792 67.9777C73.1319 66.1318 71.8323 63.7396 71.3802 60.8013H79.8563C80.007 61.5547 80.5156 62.2139 81.382 62.779C82.2485 63.3441 83.341 63.6266 84.6595 63.6266C88.0499 63.6266 89.7452 62.8732 89.7452 61.3663C89.7452 60.6882 89.3119 60.142 88.4455 59.7276C87.6167 59.3132 86.5619 59.0307 85.2811 58.88C84.0002 58.6916 82.6064 58.3903 81.0995 57.9759C79.6303 57.5615 78.2553 57.0718 76.9744 56.5067C75.6936 55.9039 74.62 54.9433 73.7535 53.6248C72.9247 52.2686 72.5103 50.6111 72.5103 48.6521C72.5103 46.0151 73.5652 43.849 75.6748 42.1538C77.8221 40.4585 80.817 39.6109 84.6595 39.6109C88.6527 39.6109 91.7041 40.4774 93.8137 42.2103C95.9233 43.9055 97.2042 46.147 97.6562 48.9347H89.1801C88.8034 47.4278 87.2965 46.6744 84.6595 46.6744C83.4163 46.6744 82.4368 46.8627 81.7211 47.2394C81.043 47.6162 80.7039 48.0871 80.7039 48.6521C80.7039 49.3302 81.1183 49.8765 81.9471 50.2908C82.8136 50.7052 83.8872 51.0066 85.168 51.195C86.4489 51.3457 87.8239 51.6282 89.2931 52.0426C90.8 52.457 92.1938 52.9655 93.4747 53.5683C94.7555 54.1334 95.8103 55.094 96.6391 56.4502C97.5055 57.7687 97.9387 59.4074 97.9387 61.3663C97.9387 64.0787 96.9028 66.3202 94.8308 68.0907C92.7589 69.8236 89.3684 70.6901 84.6595 70.6901ZM102.722 81.4265V40.176H109.503L110.351 43.5664H110.633C112.893 40.9294 115.719 39.6109 119.109 39.6109C123.027 39.6109 126.173 40.9671 128.546 43.6795C130.919 46.3542 132.106 50.1778 132.106 55.1505C132.106 60.1232 130.919 63.9657 128.546 66.678C126.173 69.3527 123.027 70.6901 119.109 70.6901C115.606 70.6901 112.875 69.4657 110.916 67.0171H110.633V81.4265H102.722ZM112.554 61.5359C113.835 62.9297 115.455 63.6266 117.414 63.6266C119.373 63.6266 120.993 62.9297 122.274 61.5359C123.554 60.1043 124.195 57.9759 124.195 55.1505C124.195 52.3251 123.554 50.2155 122.274 48.8217C120.993 47.3901 119.373 46.6744 117.414 46.6744C115.455 46.6744 113.835 47.3901 112.554 48.8217C111.274 50.2155 110.633 52.3251 110.633 55.1505C110.633 57.9759 111.274 60.1043 112.554 61.5359ZM137.487 70.125V40.176H145.398V70.125H137.487ZM144.664 35.7684C143.797 36.6349 142.724 37.0681 141.443 37.0681C140.162 37.0681 139.088 36.6349 138.222 35.7684C137.356 34.902 136.922 33.8283 136.922 32.5475C136.922 31.2666 137.356 30.193 138.222 29.3265C139.088 28.4601 140.162 28.0269 141.443 28.0269C142.724 28.0269 143.797 28.4601 144.664 29.3265C145.53 30.193 145.964 31.2666 145.964 32.5475C145.964 33.8283 145.53 34.902 144.664 35.7684ZM176.182 66.6215C173.583 69.3339 170.004 70.6901 165.445 70.6901C160.887 70.6901 157.289 69.3339 154.652 66.6215C152.053 63.8715 150.753 60.0478 150.753 55.1505C150.753 50.2532 152.053 46.4483 154.652 43.736C157.289 40.9859 160.887 39.6109 165.445 39.6109C170.004 39.6109 173.583 40.9859 176.182 43.736C178.819 46.4483 180.137 50.2532 180.137 55.1505C180.137 60.0478 178.819 63.8715 176.182 66.6215ZM160.586 61.5359C161.867 62.9297 163.486 63.6266 165.445 63.6266C167.404 63.6266 169.024 62.9297 170.305 61.5359C171.586 60.1043 172.226 57.9759 172.226 55.1505C172.226 52.3251 171.586 50.2155 170.305 48.8217C169.024 47.3901 167.404 46.6744 165.445 46.6744C163.486 46.6744 161.867 47.3901 160.586 48.8217C159.305 50.2155 158.665 52.3251 158.665 55.1505C158.665 57.9759 159.305 60.1043 160.586 61.5359Z" fill="#F14A16"/>
<path fill-rule="evenodd" clip-rule="evenodd" d="M59.9764 13.4412C57.5139 13.0928 55.0335 12.96 52.567 13.0386L50.695 5.35752C54.2018 5.13936 57.7415 5.27433 61.251 5.77076C70.6822 7.1048 79.4728 10.9891 86.5112 16.9324L80.8325 22.6568C75.0212 17.7497 67.7632 14.5426 59.9764 13.4412ZM39.1452 7.40145C41.4684 6.71082 43.8411 6.18508 46.2424 5.82699L48.2092 13.3991C45.7623 13.7273 43.3483 14.2658 40.9996 15.0102L39.1452 7.40145ZM34.9432 8.85287C34.4682 9.04061 33.996 9.2356 33.5267 9.4378C24.8816 13.1627 17.6279 19.1692 12.6829 26.6975C7.73789 34.2259 5.32361 42.9381 5.74537 51.7324C6.16714 60.5267 9.40602 69.0081 15.0524 76.1041C20.6988 83.2001 28.4992 88.592 37.467 91.5979C46.4349 94.6038 56.1675 95.0888 65.4341 92.9915C74.7007 90.8941 83.0851 86.3087 89.527 79.8151L83.3225 74.5758C78.0037 79.9373 71.0811 83.7233 63.4301 85.4549C55.7792 87.1866 47.7434 86.7862 40.3391 84.3043C32.9348 81.8225 26.4945 77.3707 21.8325 71.5119C17.1706 65.6531 14.4964 58.6504 14.1482 51.3894C13.7999 44.1284 15.7933 36.9352 19.8761 30.7193C23.9308 24.5465 29.8654 19.6129 36.9381 16.5328L34.9432 8.85287Z" fill="#F14A16"/>
</svg>
