<svg width="68" height="69" viewBox="0 0 68 69" fill="none" xmlns="http://www.w3.org/2000/svg">
<path d="M39.7535 18.9606C42.3393 19.6546 44.6972 21.0165 46.5903 22.9097C48.4835 24.8028 49.8454 27.1607 50.5394 29.7465M38.1718 24.849C39.727 25.2621 41.1454 26.0789 42.2833 27.2167C43.4211 28.3546 44.2379 29.773 44.651 31.3282M27.0047 35.1205C28.5734 38.3601 31.193 40.973 34.4367 42.5335C34.676 42.6467 34.9406 42.6958 35.2046 42.6757C35.4685 42.6557 35.7227 42.5672 35.9422 42.4191L40.7063 39.2367C40.9168 39.0939 41.16 39.0068 41.4133 38.9835C41.6665 38.9602 41.9216 39.0014 42.1546 39.1033L51.073 42.9336C51.3778 43.0605 51.6325 43.284 51.7978 43.5698C51.963 43.8557 52.0298 44.1879 51.9877 44.5153C51.7051 46.7216 50.6282 48.7492 48.9586 50.2189C47.289 51.6885 45.1411 52.4995 42.9168 52.5C36.0433 52.5 29.4512 49.7695 24.5909 44.9091C19.7305 40.0488 17 33.4567 17 26.5832C17.0005 24.3589 17.8115 22.211 19.2811 20.5414C20.7508 18.8718 22.7784 17.7949 24.9847 17.5123C25.3121 17.4702 25.6443 17.537 25.9302 17.7022C26.216 17.8675 26.4395 18.1222 26.5664 18.427L30.3967 27.3645C30.4963 27.5938 30.538 27.8441 30.5181 28.0934C30.4981 28.3426 30.4172 28.5831 30.2824 28.7937L27.0999 33.6341C26.9583 33.853 26.8751 34.1046 26.8584 34.3648C26.8417 34.6251 26.8921 34.8853 27.0047 35.1205Z" stroke="#F14A16" stroke-width="2" stroke-linecap="round" stroke-linejoin="round"/>
</svg>
