<svg width="24" height="24" viewBox="0 0 24 24" fill="none" xmlns="http://www.w3.org/2000/svg">
<path d="M15.1849 2.13521C16.7521 2.55582 18.1811 3.38126 19.3285 4.52867C20.476 5.67608 21.3014 7.10511 21.722 8.67234M14.2262 5.70407C15.1688 5.95441 16.0285 6.44947 16.7181 7.13909C17.4077 7.82871 17.9028 8.68837 18.1531 9.63097M7.45812 11.9294C8.40891 13.8928 9.9966 15.4764 11.9625 16.4222C12.1075 16.4908 12.2679 16.5206 12.4279 16.5084C12.5879 16.4963 12.7419 16.4427 12.8749 16.3529L15.7624 14.4241C15.8899 14.3376 16.0373 14.2848 16.1908 14.2706C16.3443 14.2565 16.4989 14.2815 16.6401 14.3432L22.0454 16.6647C22.2301 16.7416 22.3845 16.8771 22.4846 17.0503C22.5848 17.2235 22.6253 17.4249 22.5998 17.6234C22.4285 18.9605 21.7758 20.1894 20.7639 21.0801C19.752 21.9709 18.4502 22.4624 17.1021 22.4627C12.9362 22.4627 8.94092 20.8078 5.99518 17.862C3.04943 14.9163 1.39453 10.921 1.39453 6.75509C1.39484 5.40701 1.88633 4.10522 2.77706 3.09333C3.66778 2.08143 4.8967 1.42876 6.23385 1.25744C6.43232 1.23194 6.63367 1.2724 6.80689 1.37257C6.9801 1.47275 7.11559 1.62709 7.19248 1.81182L9.51397 7.22863C9.57434 7.36763 9.59959 7.51934 9.58751 7.6704C9.57542 7.82146 9.52637 7.96722 9.44467 8.09486L7.51587 11.0285C7.43 11.1612 7.3796 11.3137 7.36949 11.4714C7.35938 11.6291 7.38989 11.7868 7.45812 11.9294Z" stroke="#F14A16" stroke-width="1.5" stroke-linecap="round" stroke-linejoin="round"/>
</svg>
