<svg width="23" height="23" viewBox="0 0 23 23" fill="none" xmlns="http://www.w3.org/2000/svg">
<path d="M14.4933 1.9892C16.0268 2.40075 17.4251 3.2084 18.5478 4.3311C19.6705 5.4538 20.4781 6.85206 20.8897 8.38553M13.5554 5.48119C14.4776 5.72613 15.3188 6.21053 15.9936 6.8853C16.6683 7.56007 17.1527 8.40122 17.3977 9.32351M6.933 11.5724C7.86331 13.4936 9.41681 15.0431 11.3404 15.9685C11.4823 16.0356 11.6392 16.0647 11.7957 16.0528C11.9523 16.041 12.103 15.9885 12.2331 15.9007L15.0584 14.0134C15.1832 13.9287 15.3274 13.8771 15.4776 13.8632C15.6278 13.8494 15.7791 13.8739 15.9172 13.9343L21.2061 16.2058C21.3868 16.281 21.5379 16.4136 21.6359 16.5831C21.7339 16.7526 21.7735 16.9496 21.7485 17.1438C21.5809 18.4521 20.9423 19.6546 19.9522 20.5261C18.9621 21.3976 17.6883 21.8786 16.3693 21.8789C12.2931 21.8789 8.38386 20.2596 5.50156 17.3773C2.61926 14.495 1 10.5858 1 6.50957C1.0003 5.19052 1.48121 3.91678 2.35275 2.92667C3.22429 1.93657 4.42674 1.29795 5.7351 1.13032C5.92929 1.10538 6.1263 1.14496 6.29579 1.24298C6.46527 1.341 6.59784 1.49201 6.67307 1.67277L8.94457 6.97291C9.00363 7.10892 9.02835 7.25736 9.01652 7.40517C9.0047 7.55297 8.9567 7.6956 8.87676 7.82048L6.9895 10.6909C6.90548 10.8208 6.85617 10.97 6.84627 11.1243C6.83638 11.2786 6.86624 11.4329 6.933 11.5724Z" stroke="#F14A16" stroke-width="1.18605" stroke-linecap="round" stroke-linejoin="round"/>
</svg>
