<svg width="10" height="48" viewBox="0 0 10 48" fill="none" xmlns="http://www.w3.org/2000/svg">
<path d="M5 48L7.02084 44.5001L2.97939 44.4999L5 48ZM5.3501 45C5.3501 44.8067 5.19341 44.65 5.00011 44.65C4.80681 44.65 4.6501 44.8067 4.6501 45L5.3501 45ZM4.6503 39C4.65029 39.1933 4.80698 39.35 5.00028 39.35C5.19358 39.35 5.35029 39.1933 5.3503 39L4.6503 39ZM5.35049 33C5.3505 32.8067 5.1938 32.65 5.0005 32.65C4.8072 32.65 4.6505 32.8067 4.65049 33L5.35049 33ZM4.65069 27C4.65068 27.1933 4.80738 27.35 5.00068 27.35C5.19398 27.35 5.35068 27.1933 5.35069 27L4.65069 27ZM5.35089 21C5.35089 20.8067 5.1942 20.65 5.0009 20.65C4.8076 20.65 4.65089 20.8067 4.65089 21L5.35089 21ZM4.65108 15C4.65108 15.1933 4.80777 15.35 5.00107 15.35C5.19437 15.35 5.35108 15.1933 5.35108 15L4.65108 15ZM5.35128 9.00001C5.35129 8.80671 5.19459 8.65001 5.00129 8.65C4.80799 8.65 4.65129 8.80669 4.65128 8.99999L5.35128 9.00001ZM4.65148 2.99999C4.65147 3.19329 4.80817 3.34999 5.00147 3.35C5.19477 3.35 5.35147 3.19331 5.35148 3.00001L4.65148 2.99999ZM5.3503 39L5.35049 33L4.65049 33L4.6503 39L5.3503 39ZM5.35069 27L5.35089 21L4.65089 21L4.65069 27L5.35069 27ZM5.35108 15L5.35128 9.00001L4.65128 8.99999L4.65108 15L5.35108 15ZM5.35148 3.00001L5.35158 1.14879e-05L4.65158 -1.14879e-05L4.65148 2.99999L5.35148 3.00001ZM5 48L9.04168 41.0001L0.958778 40.9999L5 48ZM5.7001 45C5.70011 44.6134 5.38672 44.3 5.00012 44.3C4.61352 44.3 4.30011 44.6134 4.3001 45L5.7001 45ZM4.3003 39C4.30028 39.3866 4.61367 39.7 5.00027 39.7C5.38687 39.7 5.70028 39.3866 5.7003 39L4.3003 39ZM5.70049 33C5.7005 32.6134 5.38711 32.3 5.00052 32.3C4.61392 32.3 4.30051 32.6134 4.30049 33L5.70049 33ZM4.30069 27C4.30068 27.3866 4.61407 27.7 5.00067 27.7C5.38727 27.7 5.70068 27.3866 5.70069 27L4.30069 27ZM5.70089 21C5.7009 20.6134 5.38751 20.3 5.00091 20.3C4.61431 20.3 4.3009 20.6134 4.30089 21L5.70089 21ZM4.30108 15C4.30107 15.3866 4.61446 15.7 5.00106 15.7C5.38766 15.7 5.70107 15.3866 5.70108 15L4.30108 15ZM5.70128 9.00002C5.70129 8.61342 5.3879 8.30001 5.0013 8.3C4.6147 8.29999 4.30129 8.61338 4.30128 8.99998L5.70128 9.00002ZM4.30148 2.99998C4.30146 3.38658 4.61485 3.69999 5.00145 3.7C5.38805 3.70001 5.70146 3.38662 5.70148 3.00002L4.30148 2.99998ZM5.7003 39L5.70049 33L4.30049 33L4.3003 39L5.7003 39ZM5.70069 27L5.70089 21L4.30089 21L4.30069 27L5.70069 27ZM5.70108 15L5.70128 9.00002L4.30128 8.99998L4.30108 15L5.70108 15ZM5.70148 3.00002L5.70158 2.29759e-05L4.30158 -2.29759e-05L4.30148 2.99998L5.70148 3.00002Z" fill="#C1C1C1"/>
</svg>
