<svg width="211" height="95" viewBox="0 0 211 95" fill="none" xmlns="http://www.w3.org/2000/svg">
<path d="M210.101 88.6395L205.101 85.7545L205.102 91.528L210.101 88.6395ZM9.19346 88.7084L9.19363 89.2084L9.19346 88.7084ZM1.19072 80.7044L1.69072 80.7047L1.19072 80.7044ZM207.147 88.1405C206.871 88.1406 206.647 88.3645 206.647 88.6407C206.647 88.9168 206.871 89.1406 207.147 89.1405L207.147 88.1405ZM201.238 89.1425C201.514 89.1424 201.738 88.9185 201.738 88.6424C201.738 88.3662 201.514 88.1424 201.238 88.1425L201.238 89.1425ZM195.329 88.1446C195.053 88.1447 194.829 88.3686 194.829 88.6447C194.829 88.9209 195.053 89.1447 195.329 89.1446L195.329 88.1446ZM189.42 89.1466C189.696 89.1465 189.92 88.9226 189.92 88.6464C189.92 88.3703 189.696 88.1465 189.42 88.1466L189.42 89.1466ZM183.511 88.1486C183.234 88.1487 183.011 88.3727 183.011 88.6488C183.011 88.9249 183.235 89.1487 183.511 89.1486L183.511 88.1486ZM177.602 89.1506C177.878 89.1506 178.102 88.9266 178.102 88.6505C178.102 88.3743 177.878 88.1506 177.601 88.1506L177.602 89.1506ZM171.692 88.1527C171.416 88.1528 171.192 88.3767 171.193 88.6528C171.193 88.929 171.417 89.1528 171.693 89.1527L171.692 88.1527ZM165.784 89.1547C166.06 89.1546 166.284 88.9307 166.284 88.6545C166.283 88.3784 166.06 88.1546 165.783 88.1547L165.784 89.1547ZM159.874 88.1567C159.598 88.1568 159.374 88.3808 159.374 88.6569C159.375 88.933 159.598 89.1568 159.875 89.1567L159.874 88.1567ZM153.966 89.1588C154.242 89.1587 154.466 88.9347 154.465 88.6586C154.465 88.3824 154.241 88.1587 153.965 88.1588L153.966 89.1588ZM148.056 88.1608C147.78 88.1609 147.556 88.3848 147.556 88.661C147.556 88.9371 147.78 89.1609 148.057 89.1608L148.056 88.1608ZM142.147 89.1628C142.424 89.1627 142.647 88.9388 142.647 88.6626C142.647 88.3865 142.423 88.1627 142.147 88.1628L142.147 89.1628ZM136.238 88.1648C135.962 88.1649 135.738 88.3889 135.738 88.665C135.738 88.9412 135.962 89.1649 136.238 89.1648L136.238 88.1648ZM130.329 89.1669C130.605 89.1668 130.829 88.9428 130.829 88.6667C130.829 88.3906 130.605 88.1668 130.329 88.1669L130.329 89.1669ZM124.42 88.1689C124.144 88.169 123.92 88.3929 123.92 88.6691C123.92 88.9452 124.144 89.169 124.42 89.1689L124.42 88.1689ZM118.511 89.1709C118.787 89.1708 119.011 88.9469 119.011 88.6708C119.011 88.3946 118.787 88.1708 118.511 88.1709L118.511 89.1709ZM112.602 88.173C112.326 88.1731 112.102 88.397 112.102 88.6731C112.102 88.9493 112.326 89.1731 112.602 89.173L112.602 88.173ZM106.693 89.175C106.969 89.1749 107.193 88.951 107.193 88.6748C107.193 88.3987 106.969 88.1749 106.693 88.175L106.693 89.175ZM100.784 88.177C100.508 88.1771 100.284 88.401 100.284 88.6772C100.284 88.9533 100.508 89.1771 100.784 89.177L100.784 88.177ZM94.875 89.179C95.1512 89.1789 95.3749 88.955 95.3748 88.6789C95.3747 88.4027 95.1508 88.1789 94.8747 88.179L94.875 89.179ZM88.9656 88.1811C88.6895 88.1812 88.4657 88.4051 88.4658 88.6812C88.4659 88.9574 88.6898 89.1812 88.966 89.1811L88.9656 88.1811ZM83.0569 89.1831C83.333 89.183 83.5568 88.9591 83.5567 88.6829C83.5566 88.4068 83.3327 88.183 83.0566 88.1831L83.0569 89.1831ZM77.1475 88.1851C76.8714 88.1852 76.6476 88.4092 76.6477 88.6853C76.6478 88.9614 76.8717 89.1852 77.1478 89.1851L77.1475 88.1851ZM71.2388 89.1872C71.5149 89.1871 71.7387 88.9631 71.7386 88.687C71.7385 88.4108 71.5146 88.1871 71.2384 88.1872L71.2388 89.1872ZM65.3294 88.1892C65.0532 88.1893 64.8295 88.4132 64.8295 88.6894C64.8296 88.9655 65.0536 89.1893 65.3297 89.1892L65.3294 88.1892ZM59.4207 89.1912C59.6968 89.1911 59.9206 88.9672 59.9205 88.691C59.9204 88.4149 59.6965 88.1911 59.4203 88.1912L59.4207 89.1912ZM53.5113 88.1932C53.2351 88.1933 53.0113 88.4173 53.0114 88.6934C53.0115 88.9696 53.2355 89.1933 53.5116 89.1932L53.5113 88.1932ZM47.6025 89.1953C47.8787 89.1952 48.1025 88.9712 48.1024 88.6951C48.1023 88.419 47.8783 88.1952 47.6022 88.1953L47.6025 89.1953ZM41.6931 88.1973C41.417 88.1974 41.1932 88.4213 41.1933 88.6975C41.1934 88.9736 41.4173 89.1974 41.6935 89.1973L41.6931 88.1973ZM35.7844 89.1993C36.0606 89.1992 36.2844 88.9753 36.2843 88.6991C36.2842 88.423 36.0602 88.1992 35.7841 88.1993L35.7844 89.1993ZM29.875 88.2013C29.5989 88.2014 29.3751 88.4254 29.3752 88.7015C29.3753 88.9777 29.5992 89.2014 29.8754 89.2013L29.875 88.2013ZM23.9663 89.2034C24.2425 89.2033 24.4662 88.9793 24.4661 88.7032C24.4661 88.4271 24.2421 88.2033 23.966 88.2034L23.9663 89.2034ZM18.0569 88.2054C17.7808 88.2055 17.557 88.4294 17.5571 88.7056C17.5572 88.9817 17.7811 89.2055 18.0573 89.2054L18.0569 88.2054ZM12.1482 89.2074C12.4243 89.2073 12.6481 88.9834 12.648 88.7073C12.6479 88.4311 12.424 88.2073 12.1479 88.2074L12.1482 89.2074ZM6.32085 87.6399C6.06576 87.5342 5.77324 87.6553 5.6675 87.9103C5.56175 88.1654 5.68283 88.458 5.93792 88.5637L6.32085 87.6399ZM1.33495 83.96C1.44065 84.2151 1.73315 84.3362 1.98826 84.2305C2.24337 84.1248 2.36449 83.8323 2.25879 83.5772L1.33495 83.96ZM1.69216 77.8401C1.6923 77.564 1.46856 77.34 1.19242 77.3399C0.916273 77.3397 0.692303 77.5635 0.692164 77.8396L1.69216 77.8401ZM0.695044 72.1105C0.694905 72.3867 0.91865 72.6107 1.19479 72.6108C1.47094 72.6109 1.69491 72.3872 1.69504 72.111L0.695044 72.1105ZM1.69792 66.382C1.69806 66.1058 1.47432 65.8818 1.19818 65.8817C0.922033 65.8816 0.698063 66.1053 0.697924 66.3815L1.69792 66.382ZM0.700804 60.6524C0.700665 60.9285 0.924411 61.1525 1.20055 61.1526C1.4767 61.1528 1.70067 60.929 1.7008 60.6529L0.700804 60.6524ZM1.70368 54.9238C1.70382 54.6476 1.48008 54.4237 1.20394 54.4235C0.927793 54.4234 0.703823 54.6471 0.703684 54.9233L1.70368 54.9238ZM0.706564 49.1942C0.706425 49.4703 0.930171 49.6943 1.20631 49.6944C1.48246 49.6946 1.70643 49.4708 1.70656 49.1947L0.706564 49.1942ZM1.70944 43.4656C1.70958 43.1895 1.48584 42.9655 1.2097 42.9654C0.933553 42.9652 0.709583 43.189 0.709444 43.4651L1.70944 43.4656ZM0.712324 37.736C0.712185 38.0122 0.93593 38.2361 1.21207 38.2363C1.48822 38.2364 1.71219 38.0127 1.71232 37.7365L0.712324 37.736ZM1.7152 32.0074C1.71534 31.7313 1.4916 31.5073 1.21546 31.5072C0.939313 31.507 0.715343 31.7308 0.715204 32.0069L1.7152 32.0074ZM0.718084 26.2778C0.717945 26.554 0.94169 26.778 1.21783 26.7781C1.49398 26.7782 1.71795 26.5545 1.71808 26.2783L0.718084 26.2778ZM1.72096 20.5493C1.7211 20.2731 1.49736 20.0491 1.22122 20.049C0.945073 20.0489 0.721103 20.2726 0.720964 20.5488L1.72096 20.5493ZM0.723844 14.8197C0.723705 15.0958 0.94745 15.3198 1.22359 15.3199C1.49974 15.3201 1.72371 15.0963 1.72384 14.8202L0.723844 14.8197ZM1.72672 9.09108C1.72686 8.81494 1.50312 8.59097 1.22698 8.59083C0.950833 8.5907 0.726863 8.81444 0.726724 9.09058L1.72672 9.09108ZM0.729604 3.3615C0.729465 3.63764 0.95321 3.86161 1.22935 3.86175C1.5055 3.86188 1.72947 3.63814 1.7296 3.362L0.729604 3.3615ZM201.238 88.1425L195.329 88.1446L195.329 89.1446L201.238 89.1425L201.238 88.1425ZM189.42 88.1466L183.511 88.1486L183.511 89.1486L189.42 89.1466L189.42 88.1466ZM177.601 88.1506L171.692 88.1527L171.693 89.1527L177.602 89.1506L177.601 88.1506ZM165.783 88.1547L159.874 88.1567L159.875 89.1567L165.784 89.1547L165.783 88.1547ZM153.965 88.1588L148.056 88.1608L148.057 89.1608L153.966 89.1588L153.965 88.1588ZM142.147 88.1628L136.238 88.1648L136.238 89.1648L142.147 89.1628L142.147 88.1628ZM130.329 88.1669L124.42 88.1689L124.42 89.1689L130.329 89.1669L130.329 88.1669ZM118.511 88.1709L112.602 88.173L112.602 89.173L118.511 89.1709L118.511 88.1709ZM106.693 88.175L100.784 88.177L100.784 89.177L106.693 89.175L106.693 88.175ZM94.8747 88.179L88.9656 88.1811L88.966 89.1811L94.875 89.179L94.8747 88.179ZM83.0566 88.1831L77.1475 88.1851L77.1478 89.1851L83.0569 89.1831L83.0566 88.1831ZM71.2384 88.1872L65.3294 88.1892L65.3297 89.1892L71.2388 89.1872L71.2384 88.1872ZM59.4203 88.1912L53.5113 88.1932L53.5116 89.1932L59.4207 89.1912L59.4203 88.1912ZM47.6022 88.1953L41.6931 88.1973L41.6935 89.1973L47.6025 89.1953L47.6022 88.1953ZM35.7841 88.1993L29.875 88.2013L29.8754 89.2013L35.7844 89.1993L35.7841 88.1993ZM23.966 88.2034L18.0569 88.2054L18.0573 89.2054L23.9663 89.2034L23.966 88.2034ZM12.1479 88.2074L9.19329 88.2084L9.19363 89.2084L12.1482 89.2074L12.1479 88.2074ZM9.19329 88.2084C8.17484 88.2088 7.20496 88.0064 6.32085 87.6399L5.93792 88.5637C6.9414 88.9797 8.04136 89.2088 9.19363 89.2084L9.19329 88.2084ZM2.25879 83.5772C1.89244 82.693 1.69021 81.7231 1.69072 80.7047L0.690724 80.7042C0.690145 81.8564 0.919138 82.9564 1.33495 83.96L2.25879 83.5772ZM1.69072 80.7047L1.69216 77.8401L0.692164 77.8396L0.690724 80.7042L1.69072 80.7047ZM1.69504 72.111L1.69792 66.382L0.697924 66.3815L0.695044 72.1105L1.69504 72.111ZM1.7008 60.6529L1.70368 54.9238L0.703684 54.9233L0.700804 60.6524L1.7008 60.6529ZM1.70656 49.1947L1.70944 43.4656L0.709444 43.4651L0.706564 49.1942L1.70656 49.1947ZM1.71232 37.7365L1.7152 32.0074L0.715204 32.0069L0.712324 37.736L1.71232 37.7365ZM1.71808 26.2783L1.72096 20.5493L0.720964 20.5488L0.718084 26.2778L1.71808 26.2783ZM1.72384 14.8202L1.72672 9.09108L0.726724 9.09058L0.723844 14.8197L1.72384 14.8202ZM1.7296 3.362L1.73104 0.497442L0.731044 0.496939L0.729604 3.3615L1.7296 3.362ZM210.101 88.6395L200.1 82.8694L200.103 94.4164L210.101 88.6395ZM9.19346 88.7084L9.1938 89.7084L9.19346 88.7084ZM1.19072 80.7044L2.19072 80.7049L1.19072 80.7044ZM207.147 87.6405C206.594 87.6407 206.147 88.0886 206.147 88.6409C206.147 89.1931 206.595 89.6407 207.147 89.6405L207.147 87.6405ZM201.238 89.6425C201.791 89.6423 202.238 89.1945 202.238 88.6422C202.238 88.0899 201.79 87.6423 201.238 87.6425L201.238 89.6425ZM195.329 87.6446C194.776 87.6448 194.329 88.0926 194.329 88.6449C194.329 89.1972 194.777 89.6448 195.329 89.6446L195.329 87.6446ZM189.42 89.6466C189.972 89.6464 190.42 89.1985 190.42 88.6463C190.42 88.094 189.972 87.6464 189.419 87.6466L189.42 89.6466ZM183.51 87.6486C182.958 87.6488 182.511 88.0967 182.511 88.649C182.511 89.2012 182.959 89.6488 183.511 89.6486L183.51 87.6486ZM177.602 89.6506C178.154 89.6505 178.602 89.2026 178.602 88.6503C178.601 88.098 178.154 87.6505 177.601 87.6506L177.602 89.6506ZM171.692 87.6527C171.14 87.6529 170.692 88.1007 170.693 88.653C170.693 89.2053 171.141 89.6529 171.693 89.6527L171.692 87.6527ZM165.784 89.6547C166.336 89.6545 166.784 89.2066 166.784 88.6544C166.783 88.1021 166.335 87.6545 165.783 87.6547L165.784 89.6547ZM159.874 87.6567C159.322 87.6569 158.874 88.1048 158.874 88.6571C158.875 89.2094 159.323 89.6569 159.875 89.6567L159.874 87.6567ZM153.966 89.6588C154.518 89.6586 154.966 89.2107 154.965 88.6584C154.965 88.1061 154.517 87.6586 153.965 87.6588L153.966 89.6588ZM148.056 87.6608C147.504 87.661 147.056 88.1088 147.056 88.6611C147.057 89.2134 147.504 89.661 148.057 89.6608L148.056 87.6608ZM142.148 89.6628C142.7 89.6626 143.147 89.2148 143.147 88.6625C143.147 88.1102 142.699 87.6626 142.147 87.6628L142.148 89.6628ZM136.238 87.6648C135.686 87.665 135.238 88.1129 135.238 88.6652C135.238 89.2175 135.686 89.665 136.239 89.6648L136.238 87.6648ZM130.33 89.6669C130.882 89.6667 131.329 89.2188 131.329 88.6665C131.329 88.1142 130.881 87.6667 130.329 87.6669L130.33 89.6669ZM124.42 87.6689C123.867 87.6691 123.42 88.117 123.42 88.6692C123.42 89.2215 123.868 89.6691 124.42 89.6689L124.42 87.6689ZM118.511 89.6709C119.064 89.6707 119.511 89.2229 119.511 88.6706C119.511 88.1183 119.063 87.6707 118.511 87.6709L118.511 89.6709ZM112.602 87.673C112.049 87.6731 111.602 88.121 111.602 88.6733C111.602 89.2256 112.05 89.6731 112.602 89.673L112.602 87.673ZM106.693 89.675C107.246 89.6748 107.693 89.2269 107.693 88.6746C107.693 88.1224 107.245 87.6748 106.693 87.675L106.693 89.675ZM100.784 87.677C100.231 87.6772 99.7837 88.1251 99.7839 88.6774C99.7841 89.2296 100.232 89.6772 100.784 89.677L100.784 87.677ZM94.8752 89.679C95.4275 89.6789 95.875 89.231 95.8748 88.6787C95.8746 88.1264 95.4268 87.6789 94.8745 87.679L94.8752 89.679ZM88.9654 87.6811C88.4132 87.6813 87.9656 88.1291 87.9658 88.6814C87.966 89.2337 88.4138 89.6813 88.9661 89.6811L88.9654 87.6811ZM83.0571 89.6831C83.6094 89.6829 84.0569 89.235 84.0567 88.6828C84.0565 88.1305 83.6087 87.6829 83.0564 87.6831L83.0571 89.6831ZM77.1473 87.6851C76.595 87.6853 76.1475 88.1332 76.1477 88.6855C76.1479 89.2378 76.5957 89.6853 77.148 89.6851L77.1473 87.6851ZM71.239 89.6872C71.7912 89.687 72.2388 89.2391 72.2386 88.6868C72.2384 88.1345 71.7905 87.687 71.2383 87.6872L71.239 89.6872ZM65.3292 87.6892C64.7769 87.6894 64.3294 88.1372 64.3295 88.6895C64.3297 89.2418 64.7776 89.6894 65.3299 89.6892L65.3292 87.6892ZM59.4208 89.6912C59.9731 89.691 60.4207 89.2432 60.4205 88.6909C60.4203 88.1386 59.9724 87.691 59.4201 87.6912L59.4208 89.6912ZM53.5111 87.6932C52.9588 87.6934 52.5112 88.1413 52.5114 88.6936C52.5116 89.2459 52.9595 89.6934 53.5118 89.6932L53.5111 87.6932ZM47.6027 89.6953C48.155 89.6951 48.6026 89.2472 48.6024 88.6949C48.6022 88.1426 48.1543 87.6951 47.602 87.6953L47.6027 89.6953ZM41.693 87.6973C41.1407 87.6975 40.6931 88.1454 40.6933 88.6976C40.6935 89.2499 41.1414 89.6975 41.6937 89.6973L41.693 87.6973ZM35.7846 89.6993C36.3369 89.6991 36.7845 89.2513 36.7843 88.699C36.7841 88.1467 36.3362 87.6991 35.7839 87.6993L35.7846 89.6993ZM29.8749 87.7013C29.3226 87.7015 28.875 88.1494 28.8752 88.7017C28.8754 89.254 29.3233 89.7015 29.8755 89.7013L29.8749 87.7013ZM23.9665 89.7034C24.5188 89.7032 24.9663 89.2553 24.9661 88.703C24.966 88.1507 24.5181 87.7032 23.9658 87.7034L23.9665 89.7034ZM18.0568 87.7054C17.5045 87.7056 17.0569 88.1535 17.0571 88.7057C17.0573 89.258 17.5052 89.7056 18.0574 89.7054L18.0568 87.7054ZM12.1484 89.7074C12.7007 89.7072 13.1482 89.2594 13.148 88.7071C13.1478 88.1548 12.7 87.7072 12.1477 87.7074L12.1484 89.7074ZM6.51232 87.178C6.00213 86.9665 5.4171 87.2087 5.20561 87.7189C4.99412 88.2291 5.23626 88.8141 5.74645 89.0256L6.51232 87.178ZM0.873031 84.1514C1.08444 84.6616 1.66943 84.9038 2.17965 84.6924C2.68987 84.481 2.93211 83.896 2.72071 83.3858L0.873031 84.1514ZM2.19216 77.8404C2.19244 77.2881 1.74495 76.8402 1.19267 76.8399C0.640382 76.8396 0.192442 77.2871 0.192164 77.8394L2.19216 77.8404ZM0.195044 72.1103C0.194767 72.6626 0.642257 73.1105 1.19454 73.1108C1.74683 73.1111 2.19477 72.6636 2.19504 72.1113L0.195044 72.1103ZM2.19792 66.3822C2.1982 65.8299 1.75071 65.382 1.19843 65.3817C0.646142 65.3814 0.198202 65.8289 0.197924 66.3812L2.19792 66.3822ZM0.200804 60.6521C0.200527 61.2044 0.648017 61.6523 1.2003 61.6526C1.75259 61.6529 2.20053 61.2054 2.2008 60.6531L0.200804 60.6521ZM2.20368 54.924C2.20396 54.3717 1.75647 53.9238 1.20419 53.9235C0.651902 53.9233 0.203962 54.3707 0.203684 54.923L2.20368 54.924ZM0.206564 49.1939C0.206287 49.7462 0.653777 50.1942 1.20606 50.1944C1.75835 50.1947 2.20629 49.7472 2.20656 49.1949L0.206564 49.1939ZM2.20944 43.4659C2.20972 42.9136 1.76223 42.4656 1.20995 42.4654C0.657662 42.4651 0.209722 42.9126 0.209444 43.4648L2.20944 43.4659ZM0.212324 37.7358C0.212047 38.288 0.659537 38.736 1.21182 38.7363C1.76411 38.7365 2.21205 38.2891 2.21232 37.7368L0.212324 37.7358ZM2.2152 32.0077C2.21548 31.4554 1.76799 31.0075 1.21571 31.0072C0.663422 31.0069 0.215482 31.4544 0.215204 32.0067L2.2152 32.0077ZM0.218084 26.2776C0.217807 26.8299 0.665297 27.2778 1.21758 27.2781C1.76987 27.2784 2.21781 26.8309 2.21808 26.2786L0.218084 26.2776ZM2.22096 20.5495C2.22124 19.9972 1.77375 19.5493 1.22147 19.549C0.669182 19.5487 0.221242 19.9962 0.220964 20.5485L2.22096 20.5495ZM0.223844 14.8194C0.223567 15.3717 0.671057 15.8196 1.22334 15.8199C1.77563 15.8202 2.22357 15.3727 2.22384 14.8204L0.223844 14.8194ZM2.22672 9.09133C2.227 8.53905 1.77951 8.09111 1.22723 8.09084C0.674942 8.09056 0.227002 8.53804 0.226724 9.09033L2.22672 9.09133ZM0.229604 3.36125C0.229327 3.91353 0.676817 4.36147 1.2291 4.36175C1.78139 4.36203 2.22933 3.91454 2.2296 3.36225L0.229604 3.36125ZM201.238 87.6425L195.329 87.6446L195.329 89.6446L201.238 89.6425L201.238 87.6425ZM189.419 87.6466L183.51 87.6486L183.511 89.6486L189.42 89.6466L189.419 87.6466ZM177.601 87.6506L171.692 87.6527L171.693 89.6527L177.602 89.6506L177.601 87.6506ZM165.783 87.6547L159.874 87.6567L159.875 89.6567L165.784 89.6547L165.783 87.6547ZM153.965 87.6588L148.056 87.6608L148.057 89.6608L153.966 89.6588L153.965 87.6588ZM142.147 87.6628L136.238 87.6648L136.239 89.6648L142.148 89.6628L142.147 87.6628ZM130.329 87.6669L124.42 87.6689L124.42 89.6689L130.33 89.6669L130.329 87.6669ZM118.511 87.6709L112.602 87.673L112.602 89.673L118.511 89.6709L118.511 87.6709ZM106.693 87.675L100.784 87.677L100.784 89.677L106.693 89.675L106.693 87.675ZM94.8745 87.679L88.9654 87.6811L88.9661 89.6811L94.8752 89.679L94.8745 87.679ZM83.0564 87.6831L77.1473 87.6851L77.148 89.6851L83.0571 89.6831L83.0564 87.6831ZM71.2383 87.6872L65.3292 87.6892L65.3299 89.6892L71.239 89.6872L71.2383 87.6872ZM59.4201 87.6912L53.5111 87.6932L53.5118 89.6932L59.4208 89.6912L59.4201 87.6912ZM47.602 87.6953L41.693 87.6973L41.6937 89.6973L47.6027 89.6953L47.602 87.6953ZM35.7839 87.6993L29.8749 87.7013L29.8755 89.7013L35.7846 89.6993L35.7839 87.6993ZM23.9658 87.7034L18.0568 87.7054L18.0574 89.7054L23.9665 89.7034L23.9658 87.7034ZM12.1477 87.7074L9.19312 87.7084L9.1938 89.7084L12.1484 89.7074L12.1477 87.7074ZM9.19312 87.7084C8.24158 87.7088 7.33675 87.5198 6.51232 87.178L5.74645 89.0256C6.80961 89.4663 7.97462 89.7089 9.1938 89.7084L9.19312 87.7084ZM2.72071 83.3858C2.37909 82.5613 2.19025 81.6565 2.19072 80.7049L0.190724 80.7039C0.190111 81.9231 0.432489 83.0882 0.873031 84.1514L2.72071 83.3858ZM2.19072 80.7049L2.19216 77.8404L0.192164 77.8394L0.190724 80.7039L2.19072 80.7049ZM2.19504 72.1113L2.19792 66.3822L0.197924 66.3812L0.195044 72.1103L2.19504 72.1113ZM2.2008 60.6531L2.20368 54.924L0.203684 54.923L0.200804 60.6521L2.2008 60.6531ZM2.20656 49.1949L2.20944 43.4659L0.209444 43.4648L0.206564 49.1939L2.20656 49.1949ZM2.21232 37.7368L2.2152 32.0077L0.215204 32.0067L0.212324 37.7358L2.21232 37.7368ZM2.21808 26.2786L2.22096 20.5495L0.220964 20.5485L0.218084 26.2776L2.21808 26.2786ZM2.22384 14.8204L2.22672 9.09133L0.226724 9.09033L0.223844 14.8194L2.22384 14.8204ZM2.2296 3.36225L2.23104 0.497693L0.231044 0.496688L0.229604 3.36125L2.2296 3.36225Z" fill="#C1C1C1"/>
</svg>
