<svg width="210" height="96" viewBox="0 0 210 96" fill="none" xmlns="http://www.w3.org/2000/svg">
<path d="M0.283671 90.0324L5.27227 87.126L5.295 92.8994L0.283671 90.0324ZM200.276 89.2447L200.274 88.7447L200.276 89.2447ZM208.244 81.2066L208.744 81.2042L208.244 81.2066ZM3.22277 89.5208C3.49891 89.5197 3.72364 89.7427 3.72474 90.0188C3.72581 90.295 3.50284 90.5197 3.22671 90.5208L3.22277 89.5208ZM9.10883 90.4976C8.83269 90.4987 8.60794 90.2757 8.60686 89.9996C8.60577 89.7234 8.82875 89.4987 9.10489 89.4976L9.10883 90.4976ZM14.987 89.4745C15.2631 89.4734 15.4879 89.6963 15.489 89.9725C15.4901 90.2486 15.2671 90.4734 14.9909 90.4744L14.987 89.4745ZM20.8731 90.4513C20.5969 90.4524 20.3722 90.2294 20.3711 89.9533C20.37 89.6771 20.593 89.4524 20.8691 89.4513L20.8731 90.4513ZM26.7513 89.4281C27.0274 89.427 27.2521 89.65 27.2532 89.9261C27.2543 90.2023 27.0313 90.427 26.7552 90.4281L26.7513 89.4281ZM32.6373 90.4049C32.3612 90.406 32.1364 90.1831 32.1353 89.9069C32.1343 89.6308 32.3572 89.406 32.6334 89.405L32.6373 90.4049ZM38.5155 89.3818C38.7916 89.3807 39.0164 89.6037 39.0175 89.8798C39.0185 90.156 38.7956 90.3807 38.5194 90.3818L38.5155 89.3818ZM44.4016 90.3586C44.1254 90.3597 43.9007 90.1367 43.8996 89.8606C43.8985 89.5844 44.1215 89.3597 44.3976 89.3586L44.4016 90.3586ZM50.2797 89.3355C50.5559 89.3344 50.7806 89.5573 50.7817 89.8335C50.7828 90.1096 50.5598 90.3344 50.2837 90.3354L50.2797 89.3355ZM56.1658 90.3123C55.8897 90.3134 55.6649 90.0904 55.6638 89.8143C55.6627 89.5381 55.8857 89.3134 56.1619 89.3123L56.1658 90.3123ZM62.044 89.2891C62.3201 89.288 62.5449 89.511 62.546 89.7871C62.547 90.0633 62.3241 90.288 62.0479 90.2891L62.044 89.2891ZM67.93 90.2659C67.6539 90.267 67.4292 90.0441 67.4281 89.7679C67.427 89.4918 67.65 89.267 67.9261 89.266L67.93 90.2659ZM73.8082 89.2428C74.0844 89.2417 74.3091 89.4647 74.3102 89.7408C74.3113 90.017 74.0883 90.2417 73.8122 90.2428L73.8082 89.2428ZM79.6943 90.2196C79.4182 90.2207 79.1934 89.9977 79.1923 89.7216C79.1912 89.4454 79.4142 89.2207 79.6904 89.2196L79.6943 90.2196ZM85.5725 89.1964C85.8486 89.1954 86.0734 89.4183 86.0745 89.6945C86.0755 89.9706 85.8526 90.1954 85.5764 90.1964L85.5725 89.1964ZM91.4585 90.1733C91.1824 90.1744 90.9577 89.9514 90.9566 89.6752C90.9555 89.3991 91.1785 89.1744 91.4546 89.1733L91.4585 90.1733ZM97.3367 89.1501C97.6129 89.149 97.8376 89.372 97.8387 89.6481C97.8398 89.9243 97.6168 90.149 97.3407 90.1501L97.3367 89.1501ZM103.223 90.1269C102.947 90.128 102.722 89.9051 102.721 89.6289C102.72 89.3528 102.943 89.128 103.219 89.1269L103.223 90.1269ZM109.101 89.1038C109.377 89.1027 109.602 89.3257 109.603 89.6018C109.604 89.8779 109.381 90.1027 109.105 90.1038L109.101 89.1038ZM114.987 90.0806C114.711 90.0817 114.486 89.8587 114.485 89.5826C114.484 89.3064 114.707 89.0817 114.983 89.0806L114.987 90.0806ZM120.865 89.0574C121.141 89.0564 121.366 89.2793 121.367 89.5555C121.368 89.8316 121.145 90.0564 120.869 90.0574L120.865 89.0574ZM126.751 90.0343C126.475 90.0354 126.25 89.8124 126.249 89.5362C126.248 89.2601 126.471 89.0354 126.747 89.0343L126.751 90.0343ZM132.629 89.0111C132.906 89.01 133.13 89.233 133.131 89.5091C133.133 89.7853 132.91 90.01 132.633 90.0111L132.629 89.0111ZM138.516 89.9879C138.239 89.989 138.015 89.766 138.014 89.4899C138.012 89.2138 138.235 88.989 138.512 88.9879L138.516 89.9879ZM144.394 88.9648C144.67 88.9637 144.895 89.1867 144.896 89.4628C144.897 89.7389 144.674 89.9637 144.398 89.9648L144.394 88.9648ZM150.28 89.9416C150.004 89.9427 149.779 89.7197 149.778 89.4436C149.777 89.1674 150 88.9427 150.276 88.9416L150.28 89.9416ZM156.158 88.9184C156.434 88.9174 156.659 89.1403 156.66 89.4165C156.661 89.6926 156.438 89.9173 156.162 89.9184L156.158 88.9184ZM162.044 89.8953C161.768 89.8964 161.543 89.6734 161.542 89.3972C161.541 89.1211 161.764 88.8964 162.04 88.8953L162.044 89.8953ZM167.922 88.8721C168.198 88.871 168.423 89.094 168.424 89.3701C168.425 89.6463 168.202 89.871 167.926 89.8721L167.922 88.8721ZM173.808 89.8489C173.532 89.85 173.307 89.627 173.306 89.3509C173.305 89.0748 173.528 88.85 173.804 88.8489L173.808 89.8489ZM179.686 88.8258C179.963 88.8247 180.187 89.0477 180.188 89.3238C180.19 89.5999 179.967 89.8247 179.69 89.8258L179.686 88.8258ZM185.573 89.8026C185.296 89.8037 185.072 89.5807 185.071 89.3046C185.069 89.0284 185.292 88.8037 185.569 88.8026L185.573 89.8026ZM191.451 88.7794C191.727 88.7783 191.952 89.0013 191.953 89.2775C191.954 89.5536 191.731 89.7783 191.455 89.7794L191.451 88.7794ZM197.337 89.7563C197.061 89.7574 196.836 89.5344 196.835 89.2582C196.834 88.9821 197.057 88.7574 197.333 88.7563L197.337 89.7563ZM203.144 88.1639C203.398 88.0571 203.691 88.1769 203.798 88.4315C203.905 88.6861 203.785 88.9792 203.531 89.086L203.144 88.1639ZM208.114 84.4627C208.009 84.7183 207.717 84.8407 207.462 84.736C207.206 84.6314 207.084 84.3395 207.188 84.0839L208.114 84.4627ZM207.731 78.3445C207.729 78.0684 207.952 77.8434 208.228 77.8421C208.504 77.8408 208.729 78.0636 208.731 78.3397L207.731 78.3445ZM208.703 72.6107C208.705 72.8868 208.482 73.1117 208.206 73.1131C207.93 73.1144 207.705 72.8916 207.703 72.6155L208.703 72.6107ZM207.676 66.8864C207.675 66.6103 207.897 66.3854 208.174 66.384C208.45 66.3827 208.675 66.6055 208.676 66.8817L207.676 66.8864ZM208.649 61.1526C208.65 61.4288 208.427 61.6537 208.151 61.655C207.875 61.6563 207.65 61.4335 207.649 61.1574L208.649 61.1526ZM207.621 55.4284C207.62 55.1522 207.843 54.9273 208.119 54.926C208.395 54.9247 208.62 55.1474 208.621 55.4236L207.621 55.4284ZM208.594 49.6946C208.595 49.9707 208.373 50.1956 208.096 50.1969C207.82 50.1982 207.595 49.9755 207.594 49.6993L208.594 49.6946ZM207.567 43.9703C207.565 43.6941 207.788 43.4692 208.064 43.4679C208.341 43.4666 208.565 43.6894 208.567 43.9655L207.567 43.9703ZM208.54 38.2365C208.541 38.5126 208.318 38.7375 208.042 38.7389C207.766 38.7402 207.541 38.5174 207.54 38.2412L208.54 38.2365ZM207.512 32.5122C207.511 32.2361 207.734 32.0112 208.01 32.0098C208.286 32.0085 208.511 32.2313 208.512 32.5075L207.512 32.5122ZM208.485 26.7784C208.486 27.0546 208.263 27.2795 207.987 27.2808C207.711 27.2821 207.486 27.0593 207.485 26.7832L208.485 26.7784ZM207.458 21.0541C207.456 20.778 207.679 20.5531 207.955 20.5518C208.231 20.5505 208.456 20.7732 208.458 21.0494L207.458 21.0541ZM208.43 15.3203C208.432 15.5965 208.209 15.8214 207.933 15.8227C207.657 15.824 207.432 15.6012 207.43 15.3251L208.43 15.3203ZM207.403 9.59607C207.402 9.31993 207.624 9.09501 207.901 9.09369C208.177 9.09238 208.402 9.31516 208.403 9.59131L207.403 9.59607ZM208.376 3.86227C208.377 4.13841 208.154 4.36333 207.878 4.36465C207.602 4.36597 207.377 4.14317 207.376 3.86703L208.376 3.86227ZM9.10489 89.4976L14.987 89.4745L14.9909 90.4744L9.10883 90.4976L9.10489 89.4976ZM20.8691 89.4513L26.7513 89.4281L26.7552 90.4281L20.8731 90.4513L20.8691 89.4513ZM32.6334 89.405L38.5155 89.3818L38.5194 90.3818L32.6373 90.4049L32.6334 89.405ZM44.3976 89.3586L50.2797 89.3355L50.2837 90.3354L44.4016 90.3586L44.3976 89.3586ZM56.1619 89.3123L62.044 89.2891L62.0479 90.2891L56.1658 90.3123L56.1619 89.3123ZM67.9261 89.266L73.8082 89.2428L73.8122 90.2428L67.93 90.2659L67.9261 89.266ZM79.6904 89.2196L85.5725 89.1964L85.5764 90.1964L79.6943 90.2196L79.6904 89.2196ZM91.4546 89.1733L97.3367 89.1501L97.3407 90.1501L91.4585 90.1733L91.4546 89.1733ZM103.219 89.1269L109.101 89.1038L109.105 90.1038L103.223 90.1269L103.219 89.1269ZM114.983 89.0806L120.865 89.0574L120.869 90.0574L114.987 90.0806L114.983 89.0806ZM126.747 89.0343L132.629 89.0111L132.633 90.0111L126.751 90.0343L126.747 89.0343ZM138.512 88.9879L144.394 88.9648L144.398 89.9648L138.516 89.9879L138.512 88.9879ZM150.276 88.9416L156.158 88.9184L156.162 89.9184L150.28 89.9416L150.276 88.9416ZM162.04 88.8953L167.922 88.8721L167.926 89.8721L162.044 89.8953L162.04 88.8953ZM173.804 88.8489L179.686 88.8258L179.69 89.8258L173.808 89.8489L173.804 88.8489ZM185.569 88.8026L191.451 88.7794L191.455 89.7794L185.573 89.8026L185.569 88.8026ZM197.333 88.7563L200.274 88.7447L200.278 89.7447L197.337 89.7563L197.333 88.7563ZM200.274 88.7447C201.292 88.7407 202.261 88.5341 203.144 88.1639L203.531 89.086C202.529 89.5063 201.43 89.7401 200.278 89.7447L200.274 88.7447ZM207.188 84.0839C207.551 83.1982 207.749 82.2274 207.744 81.209L208.744 81.2042C208.75 82.3565 208.525 83.4574 208.114 84.4627L207.188 84.0839ZM207.744 81.209L207.731 78.3445L208.731 78.3397L208.744 81.2042L207.744 81.209ZM207.703 72.6155L207.676 66.8864L208.676 66.8817L208.703 72.6107L207.703 72.6155ZM207.649 61.1574L207.621 55.4284L208.621 55.4236L208.649 61.1526L207.649 61.1574ZM207.594 49.6993L207.567 43.9703L208.567 43.9655L208.594 49.6946L207.594 49.6993ZM207.54 38.2412L207.512 32.5122L208.512 32.5075L208.54 38.2365L207.54 38.2412ZM207.485 26.7832L207.458 21.0541L208.458 21.0494L208.485 26.7784L207.485 26.7832ZM207.43 15.3251L207.403 9.59607L208.403 9.59131L208.43 15.3203L207.43 15.3251ZM207.376 3.86703L207.362 1.00252L208.362 0.997756L208.376 3.86227L207.376 3.86703ZM0.283671 90.0324L10.2609 84.2195L10.3063 95.7664L0.283671 90.0324ZM200.276 89.2447L200.272 88.2447L200.276 89.2447ZM208.244 81.2066L209.244 81.2019L208.244 81.2066ZM3.2208 89.0208C3.77307 89.0186 4.22255 89.4646 4.22472 90.0168C4.2269 90.5691 3.78095 91.0186 3.22868 91.0208L3.2208 89.0208ZM9.1108 90.9976C8.55851 90.9998 8.10904 90.5538 8.10687 90.0016C8.10469 89.4493 8.55063 88.9998 9.10292 88.9976L9.1108 90.9976ZM14.985 88.9745C15.5373 88.9723 15.9868 89.4182 15.989 89.9705C15.9911 90.5228 15.5452 90.9723 14.9929 90.9744L14.985 88.9745ZM20.875 90.9513C20.3228 90.9535 19.8733 90.5075 19.8711 89.9552C19.8689 89.4029 20.3149 88.9535 20.8672 88.9513L20.875 90.9513ZM26.7493 88.9281C27.3016 88.926 27.751 89.3719 27.7532 89.9242C27.7554 90.4765 27.3094 90.9259 26.7572 90.9281L26.7493 88.9281ZM32.6393 90.9049C32.087 90.9071 31.6375 90.4612 31.6354 89.9089C31.6332 89.3566 32.0791 88.9071 32.6314 88.905L32.6393 90.9049ZM38.5135 88.8818C39.0658 88.8796 39.5153 89.3256 39.5175 89.8778C39.5196 90.4301 39.0737 90.8796 38.5214 90.8818L38.5135 88.8818ZM44.4035 90.8586C43.8512 90.8608 43.4018 90.4148 43.3996 89.8626C43.3974 89.3103 43.8434 88.8608 44.3957 88.8586L44.4035 90.8586ZM50.2778 88.8355C50.8301 88.8333 51.2795 89.2792 51.2817 89.8315C51.2839 90.3838 50.8379 90.8333 50.2857 90.8354L50.2778 88.8355ZM56.1678 90.8123C55.6155 90.8144 55.166 90.3685 55.1638 89.8162C55.1617 89.2639 55.6076 88.8145 56.1599 88.8123L56.1678 90.8123ZM62.042 88.7891C62.5943 88.7869 63.0438 89.2329 63.0459 89.7852C63.0481 90.3375 62.6022 90.7869 62.0499 90.7891L62.042 88.7891ZM67.932 90.7659C67.3797 90.7681 66.9303 90.3222 66.9281 89.7699C66.9259 89.2176 67.3719 88.7681 67.9241 88.766L67.932 90.7659ZM73.8063 88.7428C74.3585 88.7406 74.808 89.1866 74.8102 89.7388C74.8124 90.2911 74.3664 90.7406 73.8141 90.7428L73.8063 88.7428ZM79.6963 90.7196C79.144 90.7218 78.6945 90.2758 78.6923 89.7236C78.6902 89.1713 79.1361 88.7218 79.6884 88.7196L79.6963 90.7196ZM85.5705 88.6965C86.1228 88.6943 86.5723 89.1402 86.5745 89.6925C86.5766 90.2448 86.1307 90.6943 85.5784 90.6964L85.5705 88.6965ZM91.4605 90.6733C90.9082 90.6754 90.4588 90.2295 90.4566 89.6772C90.4544 89.1249 90.9004 88.6755 91.4526 88.6733L91.4605 90.6733ZM97.3348 88.6501C97.887 88.6479 98.3365 89.0939 98.3387 89.6462C98.3409 90.1985 97.8949 90.6479 97.3427 90.6501L97.3348 88.6501ZM103.225 90.6269C102.672 90.6291 102.223 90.1832 102.221 89.6309C102.219 89.0786 102.665 88.6291 103.217 88.627L103.225 90.6269ZM109.099 88.6038C109.651 88.6016 110.101 89.0476 110.103 89.5998C110.105 90.1521 109.659 90.6016 109.107 90.6038L109.099 88.6038ZM114.989 90.5806C114.437 90.5828 113.987 90.1368 113.985 89.5845C113.983 89.0323 114.429 88.5828 114.981 88.5806L114.989 90.5806ZM120.863 88.5574C121.416 88.5553 121.865 89.0012 121.867 89.5535C121.869 90.1058 121.423 90.5553 120.871 90.5574L120.863 88.5574ZM126.753 90.5343C126.201 90.5364 125.752 90.0905 125.749 89.5382C125.747 88.9859 126.193 88.5365 126.745 88.5343L126.753 90.5343ZM132.628 88.5111C133.18 88.5089 133.629 88.9549 133.631 89.5072C133.634 90.0594 133.188 90.5089 132.635 90.5111L132.628 88.5111ZM138.518 90.4879C137.965 90.4901 137.516 90.0442 137.514 89.4919C137.511 88.9396 137.957 88.4901 138.51 88.4879L138.518 90.4879ZM144.392 88.4648C144.944 88.4626 145.394 88.9086 145.396 89.4608C145.398 90.0131 144.952 90.4626 144.4 90.4648L144.392 88.4648ZM150.282 90.4416C149.729 90.4438 149.28 89.9978 149.278 89.4455C149.276 88.8933 149.722 88.4438 150.274 88.4416L150.282 90.4416ZM156.156 88.4184C156.708 88.4163 157.158 88.8622 157.16 89.4145C157.162 89.9668 156.716 90.4163 156.164 90.4184L156.156 88.4184ZM162.046 90.3953C161.494 90.3974 161.044 89.9515 161.042 89.3992C161.04 88.8469 161.486 88.3975 162.038 88.3953L162.046 90.3953ZM167.92 88.3721C168.473 88.3699 168.922 88.8159 168.924 89.3682C168.926 89.9204 168.48 90.3699 167.928 90.3721L167.92 88.3721ZM173.81 90.3489C173.258 90.3511 172.809 89.9052 172.806 89.3529C172.804 88.8006 173.25 88.3511 173.802 88.3489L173.81 90.3489ZM179.685 88.3258C180.237 88.3236 180.686 88.7695 180.688 89.3218C180.691 89.8741 180.245 90.3236 179.692 90.3258L179.685 88.3258ZM185.575 90.3026C185.022 90.3048 184.573 89.8588 184.571 89.3065C184.568 88.7543 185.014 88.3048 185.567 88.3026L185.575 90.3026ZM191.449 88.2794C192.001 88.2773 192.451 88.7232 192.453 89.2755C192.455 89.8278 192.009 90.2773 191.457 90.2794L191.449 88.2794ZM197.339 90.2563C196.786 90.2584 196.337 89.8125 196.335 89.2602C196.333 88.7079 196.779 88.2584 197.331 88.2563L197.339 90.2563ZM202.95 87.7028C203.46 87.4892 204.046 87.7288 204.259 88.2381C204.473 88.7473 204.233 89.3334 203.724 89.5471L202.95 87.7028ZM208.577 84.6522C208.367 85.1633 207.783 85.408 207.272 85.1988C206.761 84.9896 206.516 84.4056 206.726 83.8945L208.577 84.6522ZM207.231 78.3469C207.228 77.7946 207.674 77.3448 208.226 77.3421C208.778 77.3395 209.228 77.7851 209.231 78.3373L207.231 78.3469ZM209.203 72.6083C209.206 73.1606 208.76 73.6104 208.208 73.6131C207.656 73.6157 207.206 73.1701 207.203 72.6178L209.203 72.6083ZM207.176 66.8888C207.173 66.3365 207.619 65.8867 208.171 65.884C208.724 65.8814 209.173 66.327 209.176 66.8793L207.176 66.8888ZM209.149 61.1502C209.151 61.7025 208.706 62.1524 208.153 62.155C207.601 62.1576 207.151 61.712 207.149 61.1598L209.149 61.1502ZM207.121 55.4307C207.119 54.8785 207.564 54.4286 208.117 54.426C208.669 54.4233 209.119 54.8689 209.121 55.4212L207.121 55.4307ZM209.094 49.6922C209.097 50.2444 208.651 50.6943 208.099 50.6969C207.547 50.6996 207.097 50.254 207.094 49.7017L209.094 49.6922ZM207.067 43.9727C207.064 43.4204 207.51 42.9705 208.062 42.9679C208.614 42.9653 209.064 43.4109 209.067 43.9631L207.067 43.9727ZM209.039 38.2341C209.042 38.7864 208.597 39.2362 208.044 39.2389C207.492 39.2415 207.042 38.7959 207.04 38.2436L209.039 38.2341ZM207.012 32.5146C207.01 31.9623 207.455 31.5125 208.007 31.5098C208.56 31.5072 209.01 31.9528 209.012 32.5051L207.012 32.5146ZM208.985 26.776C208.988 27.3283 208.542 27.7782 207.99 27.7808C207.437 27.7834 206.988 27.3378 206.985 26.7856L208.985 26.776ZM206.958 21.0565C206.955 20.5042 207.401 20.0544 207.953 20.0518C208.505 20.0491 208.955 20.4947 208.958 21.047L206.958 21.0565ZM208.93 15.318C208.933 15.8702 208.487 16.3201 207.935 16.3227C207.383 16.3253 206.933 15.8798 206.93 15.3275L208.93 15.318ZM206.903 9.59846C206.9 9.04618 207.346 8.59633 207.898 8.5937C208.451 8.59107 208.9 9.03665 208.903 9.58893L206.903 9.59846ZM208.876 3.85989C208.878 4.41216 208.433 4.86201 207.88 4.86464C207.328 4.86728 206.878 4.4217 206.876 3.86942L208.876 3.85989ZM9.10292 88.9976L14.985 88.9745L14.9929 90.9744L9.1108 90.9976L9.10292 88.9976ZM20.8672 88.9513L26.7493 88.9281L26.7572 90.9281L20.875 90.9513L20.8672 88.9513ZM32.6314 88.905L38.5135 88.8818L38.5214 90.8818L32.6393 90.9049L32.6314 88.905ZM44.3957 88.8586L50.2778 88.8355L50.2857 90.8354L44.4035 90.8586L44.3957 88.8586ZM56.1599 88.8123L62.042 88.7891L62.0499 90.7891L56.1678 90.8123L56.1599 88.8123ZM67.9241 88.766L73.8063 88.7428L73.8141 90.7428L67.932 90.7659L67.9241 88.766ZM79.6884 88.7196L85.5705 88.6965L85.5784 90.6964L79.6963 90.7196L79.6884 88.7196ZM91.4526 88.6733L97.3348 88.6501L97.3427 90.6501L91.4605 90.6733L91.4526 88.6733ZM103.217 88.627L109.099 88.6038L109.107 90.6038L103.225 90.6269L103.217 88.627ZM114.981 88.5806L120.863 88.5574L120.871 90.5574L114.989 90.5806L114.981 88.5806ZM126.745 88.5343L132.628 88.5111L132.635 90.5111L126.753 90.5343L126.745 88.5343ZM138.51 88.4879L144.392 88.4648L144.4 90.4648L138.518 90.4879L138.51 88.4879ZM150.274 88.4416L156.156 88.4184L156.164 90.4184L150.282 90.4416L150.274 88.4416ZM162.038 88.3953L167.92 88.3721L167.928 90.3721L162.046 90.3953L162.038 88.3953ZM173.802 88.3489L179.685 88.3258L179.692 90.3258L173.81 90.3489L173.802 88.3489ZM185.567 88.3026L191.449 88.2794L191.457 90.2794L185.575 90.3026L185.567 88.3026ZM197.331 88.2563L200.272 88.2447L200.28 90.2447L197.339 90.2563L197.331 88.2563ZM200.272 88.2447C201.223 88.2409 202.127 88.0481 202.95 87.7028L203.724 89.5471C202.663 89.9923 201.499 90.2399 200.28 90.2447L200.272 88.2447ZM206.726 83.8945C207.064 83.0686 207.249 82.1629 207.244 81.2114L209.244 81.2019C209.25 82.421 209.013 83.5871 208.577 84.6522L206.726 83.8945ZM207.244 81.2114L207.231 78.3469L209.231 78.3373L209.244 81.2019L207.244 81.2114ZM207.203 72.6178L207.176 66.8888L209.176 66.8793L209.203 72.6083L207.203 72.6178ZM207.149 61.1598L207.121 55.4307L209.121 55.4212L209.149 61.1502L207.149 61.1598ZM207.094 49.7017L207.067 43.9727L209.067 43.9631L209.094 49.6922L207.094 49.7017ZM207.04 38.2436L207.012 32.5146L209.012 32.5051L209.039 38.2341L207.04 38.2436ZM206.985 26.7856L206.958 21.0565L208.958 21.047L208.985 26.776L206.985 26.7856ZM206.93 15.3275L206.903 9.59846L208.903 9.58893L208.93 15.318L206.93 15.3275ZM206.876 3.86942L206.862 1.0049L208.862 0.995375L208.876 3.85989L206.876 3.86942Z" fill="#C1C1C1"/>
</svg>
