<svg width="36" height="52" viewBox="0 0 36 52" fill="none" xmlns="http://www.w3.org/2000/svg">
<path d="M0.0216955 47.0221L3.50606 44.9746L3.53712 49.0159L0.0216955 47.0221ZM27.0998 46.8141L27.0971 46.4641L27.0998 46.8141ZM35.0383 38.7904L35.3883 38.7893L35.0383 38.7904ZM3.40377 46.6461C3.59706 46.6447 3.75496 46.8002 3.75645 46.9934C3.75793 47.1867 3.60244 47.3446 3.40915 47.3461L3.40377 46.6461ZM10.1787 47.2941C9.98537 47.2956 9.82748 47.1401 9.82599 46.9468C9.8245 46.7535 9.97999 46.5956 10.1733 46.5941L10.1787 47.2941ZM16.9428 46.5421C17.1361 46.5406 17.294 46.6961 17.2955 46.8894C17.297 47.0827 17.1415 47.2406 16.9482 47.2421L16.9428 46.5421ZM23.7177 47.1901C23.5244 47.1915 23.3665 47.0361 23.365 46.8428C23.3635 46.6495 23.519 46.4916 23.7123 46.4901L23.7177 47.1901ZM30.0125 45.8647C30.1906 45.7895 30.3959 45.8729 30.4711 46.051C30.5463 46.229 30.4629 46.4343 30.2848 46.5095L30.0125 45.8647ZM34.7678 41.9785C34.6945 42.1574 34.4901 42.2429 34.3112 42.1696C34.1323 42.0963 34.0468 41.8919 34.1201 41.7131L34.7678 41.9785ZM34.6789 35.6416C34.6783 35.4483 34.8345 35.2911 35.0278 35.2905C35.2211 35.29 35.3783 35.4462 35.3789 35.6395L34.6789 35.6416ZM35.36 29.3398C35.3606 29.5331 35.2044 29.6903 35.0111 29.6909C34.8178 29.6915 34.6606 29.5352 34.66 29.3419L35.36 29.3398ZM34.6412 23.0423C34.6406 22.849 34.7968 22.6918 34.9901 22.6912C35.1834 22.6907 35.3406 22.8469 35.3412 23.0402L34.6412 23.0423ZM35.3223 16.7405C35.3229 16.9338 35.1667 17.091 34.9734 17.0916C34.7801 17.0922 34.6229 16.9359 34.6223 16.7426L35.3223 16.7405ZM34.6035 10.443C34.6029 10.2497 34.7592 10.0925 34.9525 10.0919C35.1458 10.0914 35.3029 10.2476 35.3035 10.4409L34.6035 10.443ZM35.2847 4.14124C35.2852 4.33454 35.129 4.49171 34.9357 4.49228C34.7424 4.49286 34.5852 4.33663 34.5847 4.14333L35.2847 4.14124ZM3.16891 46.648L3.40377 46.6461L3.40915 47.3461L3.17429 47.3479L3.16891 46.648ZM10.1733 46.5941L16.9428 46.5421L16.9482 47.2421L10.1787 47.2941L10.1733 46.5941ZM23.7123 46.4901L27.0971 46.4641L27.1025 47.164L23.7177 47.1901L23.7123 46.4901ZM27.0971 46.4641C28.1316 46.4561 29.116 46.2433 30.0125 45.8647L30.2848 46.5095C29.3053 46.9232 28.2304 47.1554 27.1025 47.164L27.0971 46.4641ZM34.1201 41.7131C34.4891 40.8126 34.6914 39.826 34.6883 38.7914L35.3883 38.7893C35.3916 39.9172 35.171 40.9946 34.7678 41.9785L34.1201 41.7131ZM34.6883 38.7914L34.6789 35.6416L35.3789 35.6395L35.3883 38.7893L34.6883 38.7914ZM34.66 29.3419L34.6412 23.0423L35.3412 23.0402L35.36 29.3398L34.66 29.3419ZM34.6223 16.7426L34.6035 10.443L35.3035 10.4409L35.3223 16.7405L34.6223 16.7426ZM34.5847 4.14333L34.5752 0.993507L35.2752 0.991416L35.2847 4.14124L34.5847 4.14333ZM0.0216955 47.0221L6.99043 42.927L7.05254 51.0097L0.0216955 47.0221ZM27.0998 46.8141L27.0944 46.1141L27.0998 46.8141ZM35.0383 38.7904L35.7383 38.7883L35.0383 38.7904ZM3.40108 46.2962C3.78767 46.2932 4.10346 46.6042 4.10644 46.9908C4.10941 47.3773 3.79842 47.6931 3.41184 47.6961L3.40108 46.2962ZM10.1814 47.6441C9.79477 47.6471 9.47897 47.3361 9.476 46.9495C9.47303 46.5629 9.78401 46.2471 10.1706 46.2441L10.1814 47.6441ZM16.9401 46.1921C17.3267 46.1891 17.6425 46.5001 17.6455 46.8867C17.6485 47.2733 17.3375 47.5891 16.9509 47.5921L16.9401 46.1921ZM23.7204 47.54C23.3338 47.543 23.018 47.232 23.015 46.8454C23.0121 46.4589 23.3231 46.1431 23.7096 46.1401L23.7204 47.54ZM29.8763 45.5423C30.2325 45.3919 30.6431 45.5586 30.7935 45.9148C30.9439 46.2709 30.7771 46.6816 30.421 46.832L29.8763 45.5423ZM35.0916 42.1112C34.945 42.4689 34.5362 42.6401 34.1785 42.4935C33.8208 42.3469 33.6496 41.9381 33.7962 41.5803L35.0916 42.1112ZM34.3289 35.6426C34.3277 35.256 34.6402 34.9417 35.0268 34.9405C35.4134 34.9394 35.7277 35.2519 35.7289 35.6385L34.3289 35.6426ZM35.71 29.3388C35.7112 29.7254 35.3987 30.0397 35.0121 30.0409C34.6255 30.042 34.3112 29.7296 34.31 29.343L35.71 29.3388ZM34.2912 23.0433C34.29 22.6567 34.6025 22.3424 34.9891 22.3412C35.3757 22.3401 35.69 22.6526 35.6912 23.0391L34.2912 23.0433ZM35.6723 16.7395C35.6735 17.1261 35.361 17.4404 34.9744 17.4416C34.5878 17.4427 34.2735 17.1303 34.2723 16.7437L35.6723 16.7395ZM34.2535 10.444C34.2523 10.0574 34.5648 9.7431 34.9514 9.74194C35.338 9.74078 35.6523 10.0532 35.6535 10.4398L34.2535 10.444ZM35.6347 4.14019C35.6358 4.52679 35.3234 4.84113 34.9368 4.84228C34.5502 4.84344 34.2358 4.53098 34.2347 4.14438L35.6347 4.14019ZM10.1706 46.2441L16.9401 46.1921L16.9509 47.5921L10.1814 47.6441L10.1706 46.2441ZM23.7096 46.1401L27.0944 46.1141L27.1052 47.514L23.7204 47.54L23.7096 46.1401ZM27.0944 46.1141C28.0823 46.1065 29.0213 45.9034 29.8763 45.5423L30.421 46.832C29.3999 47.2632 28.2797 47.505 27.1052 47.514L27.0944 46.1141ZM33.7962 41.5803C34.1481 40.7215 34.3412 39.7804 34.3383 38.7925L35.7383 38.7883C35.7418 39.9629 35.5119 41.0856 35.0916 42.1112L33.7962 41.5803ZM34.3383 38.7925L34.3289 35.6426L35.7289 35.6385L35.7383 38.7883L34.3383 38.7925ZM34.31 29.343L34.2912 23.0433L35.6912 23.0391L35.71 29.3388L34.31 29.343ZM34.2723 16.7437L34.2535 10.444L35.6535 10.4398L35.6723 16.7395L34.2723 16.7437ZM34.2347 4.14438L34.2252 0.994556L35.6252 0.990367L35.6347 4.14019L34.2347 4.14438Z" fill="#C1C1C1"/>
</svg>
