<svg width="12" height="86" viewBox="0 0 12 86" fill="none" xmlns="http://www.w3.org/2000/svg">
<path d="M6.17969 85.002L9.05575 79.9958L3.28226 80.0081L6.17969 85.002ZM6.6732 81.9652C6.67261 81.689 6.44827 81.4656 6.17213 81.4662C5.89599 81.4668 5.67261 81.6912 5.6732 81.9673L6.6732 81.9652ZM5.66023 75.8959C5.66082 76.172 5.88515 76.3954 6.16129 76.3948C6.43744 76.3942 6.66081 76.1699 6.66022 75.8937L5.66023 75.8959ZM6.64725 69.8223C6.64666 69.5462 6.42232 69.3228 6.14618 69.3234C5.87004 69.324 5.64666 69.5483 5.64725 69.8244L6.64725 69.8223ZM5.63428 63.753C5.63487 64.0292 5.8592 64.2525 6.13535 64.252C6.41149 64.2514 6.63487 64.027 6.63428 63.7509L5.63428 63.753ZM6.6213 57.6795C6.62071 57.4033 6.39638 57.1799 6.12023 57.1805C5.84409 57.1811 5.62071 57.4055 5.6213 57.6816L6.6213 57.6795ZM5.60833 51.6102C5.60892 51.8863 5.83326 52.1097 6.1094 52.1091C6.38554 52.1085 6.60892 51.8842 6.60833 51.608L5.60833 51.6102ZM6.59535 45.5366C6.59476 45.2605 6.37043 45.0371 6.09429 45.0377C5.81814 45.0383 5.59477 45.2626 5.59536 45.5387L6.59535 45.5366ZM5.58238 39.4673C5.58297 39.7435 5.80731 39.9668 6.08345 39.9662C6.35959 39.9657 6.58297 39.7413 6.58238 39.4652L5.58238 39.4673ZM6.5694 33.3937C6.56881 33.1176 6.34448 32.8942 6.06834 32.8948C5.7922 32.8954 5.56882 33.1197 5.56941 33.3959L6.5694 33.3937ZM5.55643 27.3245C5.55702 27.6006 5.78136 27.824 6.0575 27.8234C6.33364 27.8228 6.55702 27.5985 6.55643 27.3223L5.55643 27.3245ZM6.54346 21.2509C6.54287 20.9748 6.31853 20.7514 6.04239 20.752C5.76625 20.7526 5.54287 20.9769 5.54346 21.253L6.54346 21.2509ZM5.53048 15.1816C5.53107 15.4577 5.75541 15.6811 6.03155 15.6805C6.30769 15.6799 6.53107 15.4556 6.53048 15.1795L5.53048 15.1816ZM6.51751 9.10803C6.51692 8.83189 6.29258 8.60851 6.01644 8.6091C5.7403 8.60969 5.51692 8.83402 5.51751 9.11017L6.51751 9.10803ZM5.50454 3.03874C5.50513 3.31489 5.72946 3.53826 6.0056 3.53767C6.28174 3.53708 6.50512 3.31275 6.50453 3.03661L5.50454 3.03874ZM6.66022 75.8937L6.64725 69.8223L5.64725 69.8244L5.66023 75.8959L6.66022 75.8937ZM6.63428 63.7509L6.6213 57.6795L5.6213 57.6816L5.63428 63.753L6.63428 63.7509ZM6.60833 51.608L6.59535 45.5366L5.59536 45.5387L5.60833 51.6102L6.60833 51.608ZM6.58238 39.4652L6.5694 33.3937L5.56941 33.3959L5.58238 39.4673L6.58238 39.4652ZM6.55643 27.3223L6.54346 21.2509L5.54346 21.253L5.55643 27.3245L6.55643 27.3223ZM6.53048 15.1795L6.51751 9.10803L5.51751 9.11017L5.53048 15.1816L6.53048 15.1795ZM6.50453 3.03661L6.49805 0.000883879L5.49805 0.00302082L5.50454 3.03874L6.50453 3.03661ZM6.17969 85.002L11.9318 74.9896L0.384829 75.0143L6.17969 85.002ZM7.1732 81.9641C7.17202 81.4118 6.72335 80.9651 6.17106 80.9662C5.61878 80.9674 5.17202 81.4161 5.1732 81.9684L7.1732 81.9641ZM5.16023 75.8969C5.16141 76.4492 5.61008 76.896 6.16236 76.8948C6.71465 76.8936 7.1614 76.445 7.16022 75.8927L5.16023 75.8969ZM7.14725 69.8212C7.14607 69.269 6.6974 68.8222 6.14511 68.8234C5.59283 68.8246 5.14607 69.2732 5.14725 69.8255L7.14725 69.8212ZM5.13428 63.7541C5.13546 64.3064 5.58413 64.7531 6.13641 64.752C6.6887 64.7508 7.13546 64.3021 7.13428 63.7498L5.13428 63.7541ZM7.1213 57.6784C7.12012 57.1261 6.67145 56.6793 6.11917 56.6805C5.56688 56.6817 5.12013 57.1304 5.12131 57.6827L7.1213 57.6784ZM5.10833 51.6112C5.10951 52.1635 5.55818 52.6103 6.11047 52.6091C6.66275 52.6079 7.10951 52.1592 7.10833 51.607L5.10833 51.6112ZM7.09535 45.5355C7.09417 44.9833 6.6455 44.5365 6.09322 44.5377C5.54093 44.5389 5.09418 44.9875 5.09536 45.5398L7.09535 45.5355ZM5.08238 39.4684C5.08356 40.0207 5.53223 40.4674 6.08452 40.4662C6.6368 40.4651 7.08356 40.0164 7.08238 39.4641L5.08238 39.4684ZM7.0694 33.3927C7.06822 32.8404 6.61955 32.3936 6.06727 32.3948C5.51499 32.396 5.06823 32.8447 5.06941 33.397L7.0694 33.3927ZM5.05643 27.3255C5.05761 27.8778 5.50628 28.3246 6.05857 28.3234C6.61085 28.3222 7.05761 27.8735 7.05643 27.3213L5.05643 27.3255ZM7.04345 21.2498C7.04227 20.6975 6.5936 20.2508 6.04132 20.252C5.48904 20.2531 5.04228 20.7018 5.04346 21.2541L7.04345 21.2498ZM5.03049 15.1827C5.03167 15.7349 5.48034 16.1817 6.03262 16.1805C6.5849 16.1793 7.03166 15.7307 7.03048 15.1784L5.03049 15.1827ZM7.01751 9.10696C7.01633 8.55468 6.56765 8.10792 6.01537 8.1091C5.46309 8.11028 5.01633 8.55896 5.01751 9.11124L7.01751 9.10696ZM5.00454 3.03981C5.00572 3.59209 5.45439 4.03885 6.00667 4.03767C6.55895 4.03649 7.00571 3.58782 7.00453 3.03554L5.00454 3.03981ZM7.16022 75.8927L7.14725 69.8212L5.14725 69.8255L5.16023 75.8969L7.16022 75.8927ZM7.13428 63.7498L7.1213 57.6784L5.12131 57.6827L5.13428 63.7541L7.13428 63.7498ZM7.10833 51.607L7.09535 45.5355L5.09536 45.5398L5.10833 51.6112L7.10833 51.607ZM7.08238 39.4641L7.0694 33.3927L5.06941 33.397L5.08238 39.4684L7.08238 39.4641ZM7.05643 27.3213L7.04345 21.2498L5.04346 21.2541L5.05643 27.3255L7.05643 27.3213ZM7.03048 15.1784L7.01751 9.10696L5.01751 9.11124L5.03049 15.1827L7.03048 15.1784ZM7.00453 3.03554L6.99804 -0.000184593L4.99805 0.00408929L5.00454 3.03981L7.00453 3.03554Z" fill="#C1C1C1"/>
</svg>
