<svg width="32" height="51" viewBox="0 0 32 51" fill="none" xmlns="http://www.w3.org/2000/svg">
<path d="M31.4617 46.9647L27.9705 44.9287L27.9529 48.9701L31.4617 46.9647ZM9.17231 46.8677L9.17383 46.5177L9.17231 46.8677ZM1.20714 38.879L1.55714 38.8785L1.20714 38.879ZM28.677 46.6025C28.4837 46.6017 28.3264 46.7577 28.3255 46.951C28.3247 47.1443 28.4807 47.3017 28.674 47.3025L28.677 46.6025ZM23.1016 47.2783C23.2949 47.2791 23.4523 47.1231 23.4532 46.9298C23.454 46.7365 23.298 46.5791 23.1047 46.5783L23.1016 47.2783ZM17.5323 46.554C17.339 46.5532 17.1817 46.7092 17.1808 46.9025C17.18 47.0958 17.336 47.2532 17.5293 47.254L17.5323 46.554ZM11.957 47.2298C12.1503 47.2306 12.3076 47.0746 12.3085 46.8813C12.3093 46.688 12.1533 46.5306 11.96 46.5298L11.957 47.2298ZM6.25833 45.9288C6.07999 45.8542 5.87497 45.9384 5.80041 46.1167C5.72585 46.295 5.80998 46.5001 5.98831 46.5746L6.25833 45.9288ZM1.49081 42.0638C1.56484 42.2424 1.76961 42.3271 1.94817 42.2531C2.12673 42.1791 2.21146 41.9743 2.13743 41.7957L1.49081 42.0638ZM1.55265 35.6915C1.55238 35.4983 1.39546 35.3418 1.20216 35.342C1.00886 35.3423 0.85238 35.4992 0.852652 35.6925L1.55265 35.6915ZM0.843682 29.3186C0.843955 29.5119 1.00088 29.6684 1.19417 29.6681C1.38747 29.6679 1.54395 29.5109 1.54368 29.3176L0.843682 29.3186ZM1.53471 22.9437C1.53444 22.7504 1.37752 22.594 1.18422 22.5942C0.99092 22.5945 0.834441 22.7514 0.834713 22.9447L1.53471 22.9437ZM0.825743 16.5708C0.826015 16.7641 0.982935 16.9206 1.17623 16.9203C1.36953 16.9201 1.52601 16.7631 1.52574 16.5698L0.825743 16.5708ZM1.51677 10.1959C1.5165 10.0026 1.35958 9.84615 1.16628 9.84642C0.97298 9.84669 0.816501 10.0036 0.816773 10.1969L1.51677 10.1959ZM0.807803 3.823C0.808075 4.0163 0.964996 4.17278 1.15829 4.17251C1.35159 4.17224 1.50807 4.01532 1.5078 3.82202L0.807803 3.823ZM23.1047 46.5783L17.5323 46.554L17.5293 47.254L23.1016 47.2783L23.1047 46.5783ZM11.96 46.5298L9.17383 46.5177L9.17078 47.2177L11.957 47.2298L11.96 46.5298ZM9.17383 46.5177C8.14002 46.5132 7.15562 46.3039 6.25833 45.9288L5.98831 46.5746C6.9687 46.9845 8.04371 47.2128 9.17078 47.2177L9.17383 46.5177ZM2.13743 41.7957C1.76492 40.8973 1.55859 39.9123 1.55714 38.8785L0.857137 38.8795C0.858723 40.0066 1.0838 41.0822 1.49081 42.0638L2.13743 41.7957ZM1.55714 38.8785L1.55265 35.6915L0.852652 35.6925L0.857137 38.8795L1.55714 38.8785ZM1.54368 29.3176L1.53471 22.9437L0.834713 22.9447L0.843682 29.3186L1.54368 29.3176ZM1.52574 16.5698L1.51677 10.1959L0.816773 10.1969L0.825743 16.5708L1.52574 16.5698ZM1.5078 3.82202L1.50332 0.635064L0.803318 0.636049L0.807803 3.823L1.5078 3.82202ZM31.4617 46.9647L24.4793 42.8928L24.4442 50.9756L31.4617 46.9647ZM9.17231 46.8677L9.17535 46.1677L9.17231 46.8677ZM1.20714 38.879L1.90714 38.878L1.20714 38.879ZM28.6786 46.2525C28.292 46.2509 27.9772 46.5629 27.9755 46.9495C27.9738 47.3361 28.2859 47.6509 28.6725 47.6525L28.6786 46.2525ZM23.1001 47.6283C23.4867 47.63 23.8015 47.3179 23.8032 46.9313C23.8048 46.5447 23.4928 46.23 23.1062 46.2283L23.1001 47.6283ZM17.5339 46.204C17.1473 46.2024 16.8325 46.5144 16.8308 46.901C16.8291 47.2876 17.1412 47.6023 17.5278 47.604L17.5339 46.204ZM11.9554 47.5798C12.342 47.5815 12.6568 47.2694 12.6585 46.8828C12.6602 46.4962 12.3481 46.1815 11.9615 46.1798L11.9554 47.5798ZM6.39334 45.6059C6.03666 45.4567 5.62662 45.625 5.4775 45.9817C5.32837 46.3384 5.49663 46.7484 5.85331 46.8975L6.39334 45.6059ZM1.1675 42.1979C1.31557 42.555 1.72511 42.7245 2.08223 42.5764C2.43935 42.4283 2.60881 42.0188 2.46073 41.6617L1.1675 42.1979ZM1.90265 35.6911C1.90211 35.3045 1.58827 34.9915 1.20167 34.992C0.815068 34.9926 0.502109 35.3064 0.502653 35.693L1.90265 35.6911ZM0.493683 29.3191C0.494227 29.7057 0.808068 30.0187 1.19467 30.0181C1.58127 30.0176 1.89423 29.7038 1.89368 29.3172L0.493683 29.3191ZM1.88471 22.9432C1.88417 22.5566 1.57033 22.2437 1.18373 22.2442C0.797128 22.2448 0.484169 22.5586 0.484713 22.9452L1.88471 22.9432ZM0.475743 16.5713C0.476287 16.9579 0.790128 17.2709 1.17673 17.2703C1.56333 17.2698 1.87629 16.9559 1.87574 16.5693L0.475743 16.5713ZM1.86677 10.1954C1.86623 9.80883 1.55239 9.49587 1.16579 9.49642C0.779188 9.49696 0.466229 9.8108 0.466773 10.1974L1.86677 10.1954ZM0.457803 3.8235C0.458347 4.21009 0.772189 4.52306 1.15879 4.52251C1.54539 4.52197 1.85835 4.20812 1.8578 3.82153L0.457803 3.8235ZM23.1062 46.2283L17.5339 46.204L17.5278 47.604L23.1001 47.6283L23.1062 46.2283ZM11.9615 46.1798L9.17535 46.1677L9.16926 47.5677L11.9554 47.5798L11.9615 46.1798ZM9.17535 46.1677C8.18818 46.1634 7.24907 45.9637 6.39334 45.6059L5.85331 46.8975C6.87525 47.3248 7.99555 47.5625 9.16926 47.5677L9.17535 46.1677ZM2.46073 41.6617C2.10548 40.8049 1.90853 39.8652 1.90714 38.878L0.507138 38.88C0.50879 40.0537 0.743244 41.1747 1.1675 42.1979L2.46073 41.6617ZM1.90714 38.878L1.90265 35.6911L0.502653 35.693L0.507138 38.88L1.90714 38.878ZM1.89368 29.3172L1.88471 22.9432L0.484713 22.9452L0.493683 29.3191L1.89368 29.3172ZM1.87574 16.5693L1.86677 10.1954L0.466773 10.1974L0.475743 16.5713L1.87574 16.5693ZM1.8578 3.82153L1.85332 0.634572L0.453318 0.636541L0.457803 3.8235L1.8578 3.82153Z" fill="#C1C1C1"/>
</svg>
