<svg width="42" height="43" viewBox="0 0 42 43" fill="none" xmlns="http://www.w3.org/2000/svg">
<path d="M21.184 18.8645C24.7666 18.8645 27.6708 15.8911 27.6708 12.2232C27.6708 8.5554 24.7666 5.58203 21.184 5.58203C17.6015 5.58203 14.6973 8.5554 14.6973 12.2232C14.6973 15.8911 17.6015 18.8645 21.184 18.8645Z" fill="#F14A16"/>
<path d="M34.304 18.8637C36.5688 18.8637 38.4048 16.984 38.4048 14.6653C38.4048 12.3465 36.5688 10.4668 34.304 10.4668C32.0391 10.4668 30.2031 12.3465 30.2031 14.6653C30.2031 16.984 32.0391 18.8637 34.304 18.8637Z" fill="#F14A16"/>
<path d="M8.05981 18.8637C10.3246 18.8637 12.1606 16.984 12.1606 14.6653C12.1606 12.3465 10.3246 10.4668 8.05981 10.4668C5.79499 10.4668 3.95898 12.3465 3.95898 14.6653C3.95898 16.984 5.79499 18.8637 8.05981 18.8637Z" fill="#F14A16"/>
<path d="M12.101 22.6358C10.4867 21.2817 9.02483 21.461 7.15836 21.461C4.36682 21.461 2.0957 23.7724 2.0957 26.6129V34.9495C2.0957 36.1831 3.07916 37.1861 4.28853 37.1861C9.5097 37.1861 8.88071 37.2829 8.88071 36.9556C8.88071 31.0483 8.19729 26.7162 12.101 22.6358Z" fill="#F14A16"/>
<path d="M22.9603 21.4924C19.7003 21.214 16.8666 21.4956 14.4224 23.5611C10.3323 26.9153 11.1194 31.4316 11.1194 36.9565C11.1194 38.4183 12.281 39.6298 13.7305 39.6298C29.4689 39.6298 30.0953 40.1496 31.0285 38.0336C31.3346 37.318 31.2507 37.5454 31.2507 30.7C31.2507 25.2629 26.6524 21.4924 22.9603 21.4924Z" fill="#F14A16"/>
<path d="M35.2102 21.4608C33.3335 21.4608 31.8797 21.2834 30.2676 22.6356C34.1421 26.6857 33.4878 30.7222 33.4878 36.9554C33.4878 37.2847 32.9657 37.1859 38.0017 37.1859C39.2544 37.1859 40.2729 36.147 40.2729 34.8699V26.6127C40.2729 23.7722 38.0017 21.4608 35.2102 21.4608Z" fill="#F14A16"/>
</svg>
