<svg width="42" height="43" viewBox="0 0 42 43" fill="none" xmlns="http://www.w3.org/2000/svg">
<path d="M34.36 13.248H9.54232C8.9668 13.248 8.50065 12.7819 8.50065 12.2064C8.50065 11.6309 8.9668 11.1647 9.54232 11.1647H34.5423C35.1178 11.1647 35.584 10.6986 35.584 10.123C35.584 8.39714 34.1849 6.99805 32.459 6.99805H8.50065C6.19922 6.99805 4.33398 8.86328 4.33398 11.1647V31.998C4.33398 34.2995 6.19922 36.1647 8.50065 36.1647H34.36C36.1842 36.1647 37.6673 34.763 37.6673 33.0397V16.373C37.6673 14.6497 36.1842 13.248 34.36 13.248ZM31.4173 26.7897C30.2669 26.7897 29.334 25.8568 29.334 24.7064C29.334 23.556 30.2669 22.623 31.4173 22.623C32.5677 22.623 33.5007 23.556 33.5007 24.7064C33.5007 25.8568 32.5677 26.7897 31.4173 26.7897Z" fill="#F14A16"/>
</svg>
