<svg width="30" height="30" viewBox="0 0 30 30" fill="none" xmlns="http://www.w3.org/2000/svg">
<path d="M22.043 16.1241C21.7244 15.9619 20.1432 15.1858 19.8478 15.0816C19.5525 14.9715 19.3382 14.9194 19.1239 15.2437C18.9096 15.5681 18.2956 16.2863 18.1045 16.5064C17.9192 16.7207 17.728 16.7496 17.4095 16.5874C15.5213 15.6434 14.2819 14.902 13.0366 12.7648C12.7065 12.1972 13.3667 12.2377 13.9807 11.0099C14.0849 10.7956 14.0328 10.6102 13.9517 10.4481C13.8706 10.2859 13.2277 8.70471 12.9613 8.06181C12.7007 7.43629 12.4343 7.52317 12.2373 7.51158C12.052 7.5 11.8377 7.5 11.6234 7.5C11.4091 7.5 11.0616 7.58109 10.7662 7.89964C10.4708 8.22398 9.64258 9.00009 9.64258 10.5813C9.64258 12.1625 10.7952 13.6915 10.9515 13.9058C11.1137 14.1201 13.2162 17.3635 16.4422 18.7594C18.481 19.6398 19.2802 19.715 20.2996 19.5645C20.9193 19.4718 22.1993 18.7883 22.4658 18.0354C22.7322 17.2825 22.7322 16.6396 22.6511 16.5064C22.5758 16.3616 22.3615 16.2805 22.043 16.1241Z" fill="#F14A16"/>
<path d="M4.28293 21.1715C2.4962 18.4896 1.79343 15.2786 2.30592 12.1382C2.81841 8.99786 4.5111 6.14301 7.06776 4.10699C9.62442 2.07096 12.8702 0.993054 16.1987 1.07463C19.5271 1.1562 22.7107 2.39167 25.1545 4.55024C27.5984 6.7088 29.1353 9.64281 29.4783 12.8041C29.8213 15.9655 28.9469 19.1379 27.0183 21.7287C25.0898 24.3195 22.239 26.1515 18.9987 26.8824C15.7584 27.6134 12.3501 27.1933 9.4106 25.7006L9.10686 24.106C11.7503 25.4484 15.7673 26.2575 18.6813 25.6002C21.5952 24.9429 24.1588 23.2954 25.8931 20.9655C27.6274 18.6357 28.4138 15.7828 28.1054 12.9399C27.7969 10.0969 26.4148 7.45845 24.2171 5.5173C22.0194 3.57614 19.1565 2.4651 16.1632 2.39175C13.17 2.31839 10.2512 3.28774 7.952 5.11869C5.65284 6.94964 4.13064 9.51696 3.66977 12.341C3.2089 15.1651 4.2858 18.48 5.89258 20.8917L4.28293 21.1715Z" fill="#F14A16"/>
<path d="M9.4106 25.7006L9.10686 24.106L4.28543 26.2489L5.89258 20.8917L4.28293 21.1715L2.76554 27.856L9.4106 25.7006Z" fill="#F14A16"/>
</svg>
