<svg width="28" height="28" viewBox="0 0 28 28" fill="none" xmlns="http://www.w3.org/2000/svg">
<path d="M20.5737 15.0492C20.2764 14.8978 18.8006 14.1734 18.5249 14.0761C18.2492 13.9734 18.0492 13.9248 17.8492 14.2275C17.6492 14.5302 17.0762 15.2005 16.8978 15.4059C16.7248 15.6059 16.5464 15.633 16.2491 15.4816C14.4868 14.6005 13.33 13.9085 12.1678 11.9138C11.8596 11.3841 12.4759 11.4219 13.0489 10.2759C13.1462 10.0759 13.0976 9.90288 13.0219 9.75152C12.9462 9.60016 12.3462 8.12439 12.0975 7.52436C11.8542 6.94054 11.6056 7.02162 11.4218 7.01081C11.2488 7 11.0488 7 10.8488 7C10.6488 7 10.3244 7.07568 10.0487 7.373C9.77302 7.67572 9 8.40009 9 9.87585C9 11.3516 10.0757 12.7787 10.2217 12.9788C10.3731 13.1788 12.3353 16.206 15.3463 17.5088C17.2492 18.3304 17.9952 18.4007 18.9466 18.2602C19.525 18.1737 20.7197 17.5358 20.9683 16.833C21.217 16.1303 21.217 15.5303 21.1413 15.4059C21.071 15.2708 20.871 15.1951 20.5737 15.0492Z" fill="#F14A16"/>
<mask id="path-2-inside-1_421_14678" fill="white">
<path d="M3.99767 19.7611C2.33005 17.258 1.67413 14.2611 2.15245 11.3301C2.63078 8.39905 4.21062 5.73451 6.59684 3.83423C8.98305 1.93394 12.0124 0.927892 15.119 1.00403C18.2256 1.08016 21.1969 2.23327 23.4778 4.24793C25.7587 6.26259 27.1932 9.001 27.5134 11.9516C27.8335 14.9021 27.0173 17.863 25.2174 20.2811C23.4174 22.6992 20.7567 24.4091 17.7324 25.0913C14.7081 25.7735 11.527 25.3814 8.78349 23.9883L8.5 22.5C10.9672 23.7528 14.7164 24.5081 17.4361 23.8946C20.1558 23.2811 22.5485 21.7434 24.1672 19.5689C25.7859 17.3943 26.5198 14.7316 26.232 12.0782C25.9441 9.42486 24.654 6.96226 22.6028 5.15052C20.5517 3.33877 17.8796 2.3018 15.0859 2.23334C12.2923 2.16487 9.568 3.0696 7.42212 4.77848C5.27624 6.48737 3.85553 8.88354 3.42538 11.5193C2.99524 14.1551 4.00034 17.249 5.5 19.5L3.99767 19.7611Z"/>
<path d="M8.78349 23.9883L8.5 22.5L4 24.5L5.5 19.5L3.99767 19.7611L2.58143 26L8.78349 23.9883Z"/>
</mask>
<path d="M3.99767 19.7611C2.33005 17.258 1.67413 14.2611 2.15245 11.3301C2.63078 8.39905 4.21062 5.73451 6.59684 3.83423C8.98305 1.93394 12.0124 0.927892 15.119 1.00403C18.2256 1.08016 21.1969 2.23327 23.4778 4.24793C25.7587 6.26259 27.1932 9.001 27.5134 11.9516C27.8335 14.9021 27.0173 17.863 25.2174 20.2811C23.4174 22.6992 20.7567 24.4091 17.7324 25.0913C14.7081 25.7735 11.527 25.3814 8.78349 23.9883L8.5 22.5C10.9672 23.7528 14.7164 24.5081 17.4361 23.8946C20.1558 23.2811 22.5485 21.7434 24.1672 19.5689C25.7859 17.3943 26.5198 14.7316 26.232 12.0782C25.9441 9.42486 24.654 6.96226 22.6028 5.15052C20.5517 3.33877 17.8796 2.3018 15.0859 2.23334C12.2923 2.16487 9.568 3.0696 7.42212 4.77848C5.27624 6.48737 3.85553 8.88354 3.42538 11.5193C2.99524 14.1551 4.00034 17.249 5.5 19.5L3.99767 19.7611Z" fill="#F14A16"/>
<path d="M8.78349 23.9883L8.5 22.5L4 24.5L5.5 19.5L3.99767 19.7611L2.58143 26L8.78349 23.9883Z" fill="#F14A16"/>
<path d="M9.52024 23.8479L9.23675 22.3597L7.76325 22.6403L8.04673 24.1286L9.52024 23.8479ZM5.37157 18.7611L3.86924 19.0222L4.12609 20.5L5.62843 20.2389L5.37157 18.7611ZM3.99767 19.7611L5.46045 20.0932L5.60298 19.4653L5.24599 18.9294L3.99767 19.7611ZM8.78349 23.9883L9.46264 22.6508L8.91012 22.3703L8.32068 22.5615L8.78349 23.9883ZM8.5 22.5L9.17915 21.1626L8.54289 20.8395L7.89079 21.1293L8.5 22.5ZM5.5 19.5L6.93674 19.931L7.13943 19.2554L6.74833 18.6683L5.5 19.5ZM2.58143 26L1.11864 25.6679L0.534587 28.2409L3.04424 27.4268L2.58143 26ZM4 24.5L2.56326 24.069L1.62482 27.1971L4.60921 25.8707L4 24.5ZM5.24599 18.9294C3.78563 16.7374 3.21648 14.1231 3.63287 11.5716L0.672038 11.0885C0.131783 14.399 0.874468 17.7786 2.74934 20.5928L5.24599 18.9294ZM3.63287 11.5716C4.04943 9.01912 5.4277 6.68281 7.53127 5.00761L5.6624 2.66084C2.99354 4.78622 1.21212 7.77898 0.672038 11.0885L3.63287 11.5716ZM7.53127 5.00761C9.63649 3.3311 12.3204 2.43589 15.0823 2.50357L15.1558 -0.495525C11.7044 -0.580107 8.32962 0.536783 5.6624 2.66084L7.53127 5.00761ZM15.0823 2.50357C17.844 2.57126 20.4746 3.5966 22.4848 5.37218L24.4708 3.12368C21.9192 0.86993 18.6072 -0.410941 15.1558 -0.495525L15.0823 2.50357ZM22.4848 5.37218C24.4934 7.14627 25.7434 9.54479 26.0221 12.1134L29.0046 11.7898C28.6431 8.45721 27.0241 5.37892 24.4708 3.12368L22.4848 5.37218ZM26.0221 12.1134C26.3007 14.6812 25.5921 17.2656 24.0141 19.3855L26.4206 21.1768C28.4426 18.4605 29.3663 15.123 29.0046 11.7898L26.0221 12.1134ZM24.0141 19.3855C22.4346 21.5073 20.088 23.0223 17.4023 23.6281L18.0625 26.5546C21.4254 25.796 24.4001 23.8911 26.4206 21.1768L24.0141 19.3855ZM17.4023 23.6281C14.716 24.2341 11.8921 23.8845 9.46264 22.6508L8.10434 25.3257C11.162 26.8784 14.7002 27.313 18.0625 26.5546L17.4023 23.6281ZM7.82085 23.8374C10.5114 25.2037 14.6203 26.0674 17.7662 25.3578L17.106 22.4313C14.8126 22.9487 11.4231 22.302 9.17915 21.1626L7.82085 23.8374ZM17.7662 25.3578C20.8245 24.6679 23.5312 22.9353 25.3704 20.4645L22.964 18.6732C21.5658 20.5515 19.4871 21.8942 17.106 22.4313L17.7662 25.3578ZM25.3704 20.4645C27.2111 17.9917 28.0526 14.9525 27.7232 11.9165L24.7407 12.24C24.9871 14.5107 24.3606 16.7969 22.964 18.6732L25.3704 20.4645ZM27.7232 11.9165C27.3939 8.88107 25.9194 6.07859 23.5959 4.02627L21.6098 6.27476C23.3887 7.84594 24.4943 9.96865 24.7407 12.24L27.7232 11.9165ZM23.5959 4.02627C21.274 1.97543 18.2612 0.810706 15.1227 0.73379L15.0492 3.73289C17.498 3.7929 19.8293 4.70211 21.6098 6.27476L23.5959 4.02627ZM15.1227 0.73379C11.9842 0.656876 8.91457 1.67244 6.48769 3.6051L8.35656 5.95187C10.2214 4.46675 12.6003 3.67287 15.0492 3.73289L15.1227 0.73379ZM6.48769 3.6051C4.05917 5.53908 2.43687 8.26347 1.94496 11.2777L4.9058 11.7609C5.27418 9.50361 6.49332 7.43567 8.35656 5.95187L6.48769 3.6051ZM1.94496 11.2777C1.43508 14.4021 2.61632 17.877 4.25167 20.3317L6.74833 18.6683C5.38437 16.621 4.55539 13.9081 4.9058 11.7609L1.94496 11.2777ZM2.53488 19.4291L1.11864 25.6679L4.04421 26.3321L5.46045 20.0932L2.53488 19.4291ZM3.04424 27.4268L9.2463 25.4151L8.32068 22.5615L2.11862 24.5732L3.04424 27.4268ZM7.89079 21.1293L3.39079 23.1293L4.60921 25.8707L9.10921 23.8707L7.89079 21.1293ZM5.43674 24.931L6.93674 19.931L4.06326 19.069L2.56326 24.069L5.43674 24.931Z" fill="#F14A16" mask="url(#path-2-inside-1_421_14678)"/>
</svg>
