<svg width="27" height="26" viewBox="0 0 27 26" fill="none" xmlns="http://www.w3.org/2000/svg">
<path d="M19.3846 13.9588C19.1129 13.8205 17.7643 13.1585 17.5124 13.0696C17.2605 12.9758 17.0777 12.9313 16.8949 13.2079C16.7122 13.4846 16.1886 14.0971 16.0255 14.2848C15.8675 14.4676 15.7045 14.4923 15.4328 14.354C13.8224 13.5488 12.7653 12.9165 11.7033 11.0937C11.4217 10.6096 11.9848 10.6442 12.5085 9.59699C12.5974 9.41422 12.5529 9.25615 12.4838 9.11784C12.4146 8.97953 11.8663 7.63098 11.6391 7.08267C11.4168 6.54918 11.1895 6.62327 11.0216 6.61339C10.8635 6.60352 10.6808 6.60352 10.498 6.60352C10.3152 6.60352 10.0188 6.67267 9.7669 6.94436C9.51498 7.22098 8.80859 7.88291 8.80859 9.23145C8.80859 10.58 9.7916 11.8841 9.92497 12.0669C10.0633 12.2496 11.8564 15.0159 14.6078 16.2064C16.3466 16.9572 17.0283 17.0214 17.8977 16.893C18.4263 16.8139 19.5179 16.2311 19.7452 15.5889C19.9724 14.9467 19.9724 14.3984 19.9032 14.2848C19.839 14.1613 19.6562 14.0921 19.3846 13.9588Z" fill="#484848"/>
<path d="M4.23952 18.2649C2.71566 15.9776 2.11629 13.239 2.55337 10.5606C2.99046 7.88229 4.43411 5.44746 6.61462 3.71099C8.79513 1.97452 11.5633 1.0552 14.4021 1.12477C17.2409 1.19434 19.956 2.24804 22.0403 4.08903C24.1246 5.93001 25.4355 8.43235 25.728 11.1286C26.0205 13.8248 25.2747 16.5304 23.6299 18.7401C21.9851 20.9497 19.5538 22.5122 16.7902 23.1356C14.0266 23.759 11.1198 23.4007 8.61277 22.1276L8.35372 20.7676C10.6082 21.9125 14.0342 22.6026 16.5195 22.042C19.0047 21.4814 21.1911 20.0763 22.6703 18.0892C24.1494 16.1021 24.8201 13.669 24.5571 11.2443C24.294 8.81967 23.1152 6.56937 21.2408 4.91381C19.3664 3.25825 16.9248 2.31067 14.3719 2.24811C11.8191 2.18555 9.32965 3.01228 7.36876 4.57385C5.40787 6.13542 4.10963 8.32502 3.71657 10.7336C3.3235 13.1422 4.24196 15.9694 5.61234 18.0263L4.23952 18.2649Z" fill="#484848"/>
<path d="M8.61277 22.1276L8.35372 20.7676L4.24165 22.5952L5.61234 18.0263L4.23952 18.2649L2.94537 23.9659L8.61277 22.1276Z" fill="#484848"/>
</svg>
